<svg aria-hidden="true" style="width:0;height:0;position:absolute;overflow:hidden" xmlns="http://www.w3.org/2000/svg"><defs><symbol id="icon-bi_book" viewBox="0 0 32 32"><path d="M2 5.656c1.77-.74 4.308-1.538 6.776-1.786 2.66-.268 4.916.126 6.224 1.504v19.492c-1.87-1.06-4.24-1.206-6.426-.986-2.36.24-4.74.922-6.574 1.622V5.656zm15-.282c1.308-1.378 3.564-1.772 6.224-1.504 2.468.248 5.006 1.046 6.776 1.786v19.846c-1.836-.7-4.214-1.384-6.574-1.62-2.188-.222-4.556-.078-6.426.984V5.374zm-1-1.808C14.03 1.872 11.174 1.62 8.574 1.88 5.546 2.186 2.49 3.224.586 4.09A.992.992 0 0 0 0 5v22a1.003 1.003 0 0 0 .928.998.99.99 0 0 0 .486-.087c1.764-.8 4.606-1.762 7.36-2.04 2.818-.284 5.18.174 6.446 1.754a1.002 1.002 0 0 0 1.213.276.982.982 0 0 0 .347-.276c1.266-1.58 3.628-2.038 6.444-1.754 2.756.278 5.6 1.24 7.362 2.04a1.004 1.004 0 0 0 .955-.07A1 1 0 0 0 32 27V5a.997.997 0 0 0-.586-.91c-1.904-.866-4.96-1.904-7.988-2.21-2.6-.262-5.456-.008-7.426 1.686z"/></symbol><symbol id="icon-cil_microphone" viewBox="0 0 32 32"><path d="M16 20.5a6.007 6.007 0 0 0 6-6V7a5.996 5.996 0 0 0-6-6 6.002 6.002 0 0 0-6 6v7.5a6.007 6.007 0 0 0 6 6zM12 7a4.003 4.003 0 0 1 4-4 4.001 4.001 0 0 1 4 4v7.5a4.001 4.001 0 0 1-6.828 2.828A4.001 4.001 0 0 1 12 14.5V7z"/><path d="M25 11v3.5c0 4.962-4.038 9-9 9s-9-4.038-9-9V11H5v3.5c0 5.728 4.402 10.447 10 10.954V31h2v-5.546c5.599-.507 10-5.226 10-10.954V11h-2z"/></symbol><symbol id="icon-bi_journals" viewBox="0 0 32 32"><path d="M10 0h16a4.003 4.003 0 0 1 4 4v20a4.001 4.001 0 0 1-4 4 4.001 4.001 0 0 1-4 4H6a4.001 4.001 0 0 1-4-4h2a2 2 0 0 0 2 2h16a2 2 0 0 0 2-2V8a2 2 0 0 0-2-2H6a2 2 0 0 0-2 2H2a4.003 4.003 0 0 1 4-4h16a4.003 4.003 0 0 1 4 4v18a2 2 0 0 0 2-2V4a2 2 0 0 0-2-2H10a2 2 0 0 0-2 2H6a4.003 4.003 0 0 1 4-4z"/><path d="M2 12v-1a.997.997 0 0 1 1-1 .997.997 0 0 1 1 1v1h1a.997.997 0 0 1 1 1 .997.997 0 0 1-1 1H1a.997.997 0 0 1-1-1 .997.997 0 0 1 1-1h1zm0 6v-1a.997.997 0 0 1 1-1 .997.997 0 0 1 1 1v1h1a.997.997 0 0 1 1 1 .997.997 0 0 1-1 1H1a.997.997 0 0 1-1-1 .997.997 0 0 1 1-1h1zm0 5v1H1a.997.997 0 0 0-1 1 .997.997 0 0 0 1 1h4a.997.997 0 0 0 1-1 .997.997 0 0 0-1-1H4v-1a.997.997 0 0 0-1-1 .997.997 0 0 0-1 1z"/></symbol><symbol id="icon-Vector" viewBox="0 0 32 32"><path d="M16 .82A15.614 15.614 0 0 0 .683 16.683v14.769h5.689a2.997 2.997 0 0 0 3.063-2.921v-7.286a3 3 0 0 0-3.063-2.922H2.871v-1.641A13.425 13.425 0 0 1 16 3.007a13.428 13.428 0 0 1 13.129 13.675v1.641h-3.501a2.998 2.998 0 0 0-3.063 2.922v7.297a2.997 2.997 0 0 0 3.063 2.91h5.689V16.683A15.61 15.61 0 0 0 16 .82zM6.373 20.513a.82.82 0 0 1 .875.733v7.297a.822.822 0 0 1-.875.733H2.872v-8.763h3.501zm18.379 8.019v-7.286a.822.822 0 0 1 .875-.733h3.501v8.752h-3.501a.821.821 0 0 1-.875-.733z"/></symbol><symbol id="icon-iconoir_music-1" viewBox="0 0 32 32"><path fill="none" stroke-linejoin="round" stroke-linecap="round" stroke-width="1.5" d="M26.667 18.667V4L12 6.667v14.667"/><path fill="none" stroke-linejoin="round" stroke-linecap="round" stroke-width="1.5" d="M22.667 25.333H24a2.668 2.668 0 0 0 2.667-2.667v-4h-4A2.668 2.668 0 0 0 20 21.333v1.333a2.668 2.668 0 0 0 2.667 2.667zM8 28h1.333A2.67 2.67 0 0 0 12 25.333v-4H8A2.668 2.668 0 0 0 5.333 24v1.333A2.668 2.668 0 0 0 8 28z"/></symbol><symbol id="icon-et_documents" viewBox="0 0 32 32"><path d="M1.423 26.853h16.93c.778 0 1.412-.633 1.412-1.412V7.559c0-.022-.009-.04-.012-.061s-.007-.039-.012-.058a.457.457 0 0 0-.115-.214L13.039.639a.475.475 0 0 0-.272-.127c-.02-.002-.039-.011-.06-.011H1.418C.637.501.001 1.134.001 1.913v23.529a1.42 1.42 0 0 0 1.423 1.412zM13.177 2.107l4.982 4.982h-4.511a.472.472 0 0 1-.471-.471V2.107zM.941 1.912c0-.26.214-.471.476-.471h10.818v5.176c0 .778.633 1.412 1.412 1.412h5.176v17.412a.47.47 0 0 1-.471.471H1.422a.476.476 0 0 1-.482-.47V1.913z"/><path d="M4.235 11.794h11.294a.472.472 0 0 0 0-.942H4.235a.473.473 0 0 0-.471.471.472.472 0 0 0 .471.471zM4.235 15.559h11.294a.472.472 0 0 0 0-.942H4.235a.473.473 0 0 0-.471.471.472.472 0 0 0 .471.471zM4.235 8.029h4.706a.472.472 0 0 0 0-.942H4.235a.473.473 0 0 0-.471.471.472.472 0 0 0 .471.471zM4.235 19.323h11.294a.472.472 0 0 0 0-.942H4.235a.473.473 0 0 0-.471.471.473.473 0 0 0 .471.471zM4.235 23.088h11.294a.472.472 0 0 0 0-.942H4.235a.473.473 0 0 0-.471.471.473.473 0 0 0 .471.471z"/><path d="M20.235 5.206h4.235v5.176c0 .778.633 1.412 1.412 1.412h5.177v17.412a.473.473 0 0 1-.471.471h-16.93a.476.476 0 0 1-.482-.47v-.941a.473.473 0 0 0-.471-.471.467.467 0 0 0-.471.471v.941a1.42 1.42 0 0 0 1.423 1.412h16.93c.778 0 1.412-.633 1.412-1.412V11.325c0-.022-.009-.04-.012-.061a.541.541 0 0 0-.127-.272l-6.587-6.587a.465.465 0 0 0-.272-.126c-.02-.003-.039-.012-.06-.012h-4.706a.473.473 0 0 0-.471.471.472.472 0 0 0 .471.471zm5.647 5.647a.473.473 0 0 1-.471-.471V5.871l4.982 4.982h-4.511z"/><path d="M22.118 15.559h5.647a.473.473 0 0 0 .471-.471.472.472 0 0 0-.471-.471h-5.647a.472.472 0 0 0 0 .942zM22.118 19.323h5.647a.473.473 0 0 0 .471-.471.473.473 0 0 0-.471-.471h-5.647a.472.472 0 0 0 0 .942zM22.118 23.088h5.647a.473.473 0 0 0 .471-.471.473.473 0 0 0-.471-.471h-5.647a.472.472 0 0 0 0 .942zM22.118 26.853h5.647a.473.473 0 0 0 .471-.471.473.473 0 0 0-.471-.471h-5.647a.472.472 0 0 0 0 .942z"/></symbol><symbol id="icon-AppStore" viewBox="0 0 107 32"><path style="fill:var(--color1,#000)" d="M0 4.267C0 1.911 1.888 0 4.216 0h98.234c2.329 0 4.216 1.91 4.216 4.267v23.467c0 2.356-1.887 4.267-4.216 4.267H4.216C1.888 32.001 0 30.091 0 27.734V4.267z"/><path fill="#fff" style="fill:var(--color2,#fff)" opacity=".3" d="M0 27.733C0 30.089 1.888 32 4.216 32h98.234c2.329 0 4.216-1.91 4.216-4.267V4.266c0-2.356-1.887-4.267-4.216-4.267H4.216C1.888-.001 0 1.909 0 4.266v23.467zm.632 0V4.266C.632 2.263 2.236.639 4.216.639h98.234c1.979 0 3.584 1.624 3.584 3.627v23.467c0 2.003-1.605 3.627-3.584 3.627H4.216c-1.979 0-3.584-1.624-3.584-3.627z"/><path fill="#fff" style="fill:var(--color2,#fff)" d="M24.104 16.652c-.011-1.876.829-3.289 2.524-4.331-.948-1.375-2.383-2.131-4.274-2.277-1.791-.143-3.75 1.056-4.467 1.056-.758 0-2.492-1.006-3.856-1.006-2.815.044-5.807 2.271-5.807 6.803 0 1.339.242 2.722.726 4.147.647 1.875 2.978 6.471 5.41 6.396 1.272-.03 2.171-.913 3.826-.913 1.606 0 2.438.913 3.856.913 2.454-.036 4.563-4.213 5.177-6.094-3.291-1.57-3.114-4.598-3.114-4.694zm-2.856-8.388c1.378-1.655 1.253-3.162 1.212-3.704-1.217.072-2.625.839-3.427 1.782-.883 1.012-1.402 2.263-1.291 3.674 1.315.102 2.516-.583 3.505-1.752zM38.947 23.157h-1.396l-.764-2.442H34.13l-.728 2.442h-1.359l2.633-8.315h1.626l2.646 8.315zm-2.391-3.467-.691-2.171c-.073-.222-.21-.744-.412-1.566h-.025c-.08.354-.21.876-.388 1.566l-.679 2.171h2.196zM45.718 20.085c0 1.02-.271 1.826-.813 2.417a2.359 2.359 0 0 1-1.808.79c-.777 0-1.335-.284-1.675-.851h-.025v3.158h-1.31v-6.465c0-.641-.017-1.299-.049-1.974h1.152l.073.95h.025c.437-.716 1.1-1.073 1.99-1.073.696 0 1.276.279 1.741.839.466.56.698 1.296.698 2.209zm-1.335.049c0-.584-.129-1.065-.388-1.443a1.334 1.334 0 0 0-1.141-.592c-.323 0-.617.11-.879.327a1.523 1.523 0 0 0-.516.858 1.75 1.75 0 0 0-.061.406v1c0 .436.132.804.395 1.105s.605.45 1.025.45c.493 0 .878-.194 1.152-.58s.413-.897.413-1.53zM52.501 20.085c0 1.02-.271 1.826-.814 2.417a2.357 2.357 0 0 1-1.807.79c-.777 0-1.335-.284-1.674-.851h-.025v3.158h-1.31v-6.465c0-.641-.017-1.299-.049-1.974h1.152l.073.95h.025c.436-.716 1.099-1.073 1.99-1.073.695 0 1.276.279 1.742.839.464.56.697 1.296.697 2.209zm-1.335.049c0-.584-.13-1.065-.389-1.443-.283-.395-.662-.592-1.14-.592-.324 0-.617.11-.88.327a1.522 1.522 0 0 0-.515.858c-.04.165-.061.3-.061.406v1c0 .436.132.804.393 1.105.263.3.605.45 1.026.45.493 0 .878-.194 1.152-.58s.413-.897.413-1.53zM60.085 20.825c0 .707-.242 1.283-.726 1.727-.533.485-1.275.728-2.228.728-.88 0-1.586-.172-2.12-.518l.304-1.11a3.543 3.543 0 0 0 1.894.531c.493 0 .878-.114 1.154-.34.275-.226.412-.53.412-.909 0-.337-.113-.622-.34-.852-.226-.231-.602-.445-1.128-.643-1.432-.543-2.147-1.338-2.147-2.384 0-.683.251-1.244.753-1.68.5-.437 1.168-.655 2.002-.655.744 0 1.362.132 1.856.395l-.328 1.086a3.176 3.176 0 0 0-1.565-.382c-.461 0-.821.116-1.079.346a.996.996 0 0 0-.328.753c0 .329.125.6.375.814.218.197.615.411 1.19.642.704.288 1.221.625 1.553 1.011.331.385.497.867.497 1.441zM64.416 18.161h-1.444v2.911c0 .74.254 1.11.764 1.11.234 0 .428-.021.582-.062l.036 1.012c-.258.098-.598.148-1.019.148-.517 0-.922-.161-1.214-.481-.291-.321-.437-.86-.437-1.616v-3.022h-.86v-1h.86v-1.098l1.287-.395v1.493h1.444v1.001zM70.933 20.11c0 .922-.259 1.678-.777 2.27-.543.609-1.263.913-2.161.913-.865 0-1.554-.292-2.068-.875s-.771-1.32-.771-2.208c0-.929.264-1.69.795-2.282.529-.592 1.243-.889 2.141-.889.865 0 1.562.292 2.087.876.503.567.753 1.298.753 2.195zm-1.36.043c0-.553-.116-1.027-.352-1.423-.275-.479-.667-.717-1.176-.717-.527 0-.927.239-1.201.717-.235.396-.352.878-.352 1.448 0 .553.116 1.027.352 1.422.283.479.679.717 1.19.717.5 0 .893-.244 1.176-.73.242-.403.363-.882.363-1.435zM75.192 18.333a2.274 2.274 0 0 0-.413-.037c-.461 0-.817.177-1.068.531-.218.312-.328.707-.328 1.184v3.146h-1.31l.012-4.108c0-.691-.017-1.32-.049-1.888h1.141l.048 1.147h.036c.138-.394.356-.712.655-.95.292-.214.607-.321.947-.321.121 0 .23.009.328.024v1.27zM81.051 19.875c0 .239-.016.44-.048.604h-3.931c.015.592.205 1.045.57 1.358.331.279.76.419 1.286.419.581 0 1.112-.094 1.59-.284l.206.925c-.558.247-1.218.37-1.977.37-.915 0-1.633-.274-2.155-.82s-.783-1.281-.783-2.202c0-.904.243-1.657.729-2.258.509-.641 1.197-.962 2.062-.962.85 0 1.493.321 1.93.962.346.509.52 1.139.52 1.887zm-1.249-.345c.008-.395-.077-.736-.254-1.024-.227-.37-.575-.555-1.045-.555-.428 0-.776.181-1.042.543a2.002 2.002 0 0 0-.388 1.036l2.729.001zM36.289 9.25c0 .899-.265 1.575-.795 2.03-.49.419-1.188.629-2.09.629-.448 0-.831-.02-1.151-.06V6.938a8.327 8.327 0 0 1 1.356-.104c.86 0 1.508.19 1.945.57.49.43.735 1.045.735 1.845zm-.83.022c0-.583-.152-1.029-.455-1.341s-.747-.467-1.33-.467c-.248 0-.459.017-.634.052v3.733c.097.015.274.022.532.022.602 0 1.067-.17 1.395-.511s.493-.837.493-1.489zM40.69 10.035c0 .554-.156 1.007-.466 1.363-.326.366-.758.548-1.297.548-.52 0-.934-.175-1.242-.526s-.462-.793-.462-1.326c0-.557.158-1.015.477-1.37s.747-.533 1.286-.533c.52 0 .937.175 1.254.525.3.341.451.78.451 1.318zm-.816.026c0-.332-.071-.617-.211-.855-.165-.287-.4-.431-.706-.431-.316 0-.557.144-.722.431-.141.238-.211.527-.211.869 0 .332.071.617.211.855.17.287.408.431.714.431.3 0 .536-.146.706-.438.146-.242.219-.529.219-.861zM46.591 8.265l-1.108 3.6h-.721l-.459-1.563c-.116-.39-.211-.778-.285-1.163h-.014a8.506 8.506 0 0 1-.285 1.163l-.487 1.563h-.729l-1.042-3.6h.809l.4 1.711c.097.405.177.79.24 1.155h.014c.059-.301.156-.684.292-1.148l.502-1.718h.641l.481 1.682c.116.41.211.805.284 1.185h.022c.053-.37.134-.765.24-1.185l.43-1.682.773-.001zM50.672 11.865h-.787V9.803c0-.635-.237-.953-.714-.953a.706.706 0 0 0-.569.262.94.94 0 0 0-.219.617v2.135h-.787v-2.57c0-.316-.01-.659-.029-1.03h.692l.037.563h.022c.092-.175.228-.319.408-.434.213-.134.452-.202.714-.202.33 0 .605.108.824.326.272.267.408.664.408 1.193v2.156zM52.842 11.865h-.786V6.613h.786v5.252zM57.476 10.035c0 .554-.155 1.007-.466 1.363-.326.366-.759.548-1.297.548-.521 0-.934-.175-1.242-.526s-.462-.793-.462-1.326c0-.557.158-1.015.477-1.37s.747-.533 1.285-.533c.521 0 .937.175 1.254.525.3.341.451.78.451 1.318zm-.817.026c0-.332-.071-.617-.211-.855-.164-.287-.4-.431-.705-.431-.317 0-.557.144-.722.431-.141.238-.211.527-.211.869 0 .332.071.617.211.855.17.287.408.431.714.431.3 0 .536-.146.705-.438.146-.242.219-.529.219-.861zM61.286 11.865h-.707l-.059-.415h-.022c-.242.331-.587.496-1.034.496-.334 0-.605-.109-.808-.326a1.03 1.03 0 0 1-.277-.733c0-.44.18-.775.543-1.007s.871-.346 1.527-.341v-.067c0-.474-.245-.711-.735-.711-.349 0-.657.089-.923.267l-.16-.525c.329-.207.735-.311 1.215-.311.925 0 1.39.496 1.39 1.489v1.326c0 .36.017.646.051.858zm-.817-1.237v-.555c-.868-.015-1.302.227-1.302.726 0 .188.05.328.151.422s.231.141.385.141c.173 0 .334-.056.481-.166a.685.685 0 0 0 .286-.566zM65.759 11.865h-.699l-.037-.578h-.022c-.223.44-.603.66-1.137.66-.427 0-.782-.17-1.064-.511s-.422-.783-.422-1.326c0-.583.152-1.055.459-1.415.297-.336.66-.504 1.093-.504.475 0 .808.163.997.489h.015V6.614h.788v4.282c0 .35.009.674.028.97zm-.816-1.518v-.6a.916.916 0 0 0-.307-.737.763.763 0 0 0-.526-.196.804.804 0 0 0-.693.356c-.167.238-.252.541-.252.911 0 .356.08.645.242.867.17.237.4.355.688.355a.753.753 0 0 0 .622-.296.993.993 0 0 0 .226-.659zM72.491 10.035c0 .554-.156 1.007-.466 1.363-.326.366-.757.548-1.297.548-.519 0-.933-.175-1.242-.526-.308-.35-.462-.793-.462-1.326 0-.557.158-1.015.477-1.37s.747-.533 1.287-.533c.519 0 .937.175 1.253.525.3.341.451.78.451 1.318zm-.815.026c0-.332-.071-.617-.211-.855-.166-.287-.4-.431-.707-.431-.316 0-.556.144-.722.431-.141.238-.211.527-.211.869 0 .332.071.617.211.855.171.287.408.431.714.431.3 0 .537-.146.707-.438.145-.242.219-.529.219-.861zM76.724 11.865h-.787V9.803c0-.635-.237-.953-.714-.953-.234 0-.422.087-.568.262s-.219.381-.219.617v2.135h-.788v-2.57c0-.316-.009-.659-.028-1.03h.691l.037.563h.022c.092-.175.229-.319.408-.434.214-.134.452-.202.714-.202.33 0 .605.108.823.326.273.267.408.664.408 1.193v2.156zM82.021 8.865h-.866v1.749c0 .444.154.667.459.667.141 0 .258-.012.351-.037l.02.607a1.73 1.73 0 0 1-.611.089c-.311 0-.553-.096-.728-.289s-.263-.516-.263-.971V8.865h-.517v-.599h.517v-.66l.772-.237v.896h.866v.6h.001zM86.188 11.865H85.4V9.818c0-.645-.238-.968-.713-.968-.365 0-.614.187-.75.561a.998.998 0 0 0-.037.288v2.165h-.786V6.613h.786v2.17h.015c.248-.395.603-.592 1.064-.592.326 0 .596.108.81.326.267.271.4.674.4 1.207v2.14zM90.487 9.895c0 .144-.01.264-.029.363h-2.36c.01.356.123.627.341.815.2.168.458.252.773.252.349 0 .667-.057.955-.17l.123.556c-.335.148-.731.222-1.188.222-.549 0-.981-.164-1.293-.493-.314-.328-.469-.769-.469-1.322 0-.543.145-.995.437-1.355.305-.385.717-.577 1.237-.577.51 0 .896.192 1.157.577.211.305.315.684.315 1.133zm-.751-.207a1.097 1.097 0 0 0-.152-.615c-.137-.222-.345-.334-.627-.334a.742.742 0 0 0-.626.326c-.13.173-.208.38-.233.622h1.639z"/></symbol><symbol id="icon-googlePlay" viewBox="0 0 107 32"><path style="fill:var(--color1,#000)" d="M0 4.267C0 1.911 1.888 0 4.216 0h98.234c2.329 0 4.216 1.91 4.216 4.267v23.467c0 2.356-1.887 4.267-4.216 4.267H4.216C1.888 32.001 0 30.091 0 27.734V4.267z"/><path fill="#fff" style="fill:var(--color2,#fff)" opacity=".3" d="M0 27.733C0 30.089 1.888 32 4.216 32h98.234c2.329 0 4.216-1.91 4.216-4.267V4.266c0-2.356-1.887-4.267-4.216-4.267H4.216C1.888-.001 0 1.909 0 4.266v23.467zm.632 0V4.266C.632 2.263 2.236.639 4.216.639h98.234c1.979 0 3.584 1.624 3.584 3.627v23.467c0 2.003-1.605 3.627-3.584 3.627H4.216c-1.979 0-3.584-1.624-3.584-3.627z"/><path fill="#ffd900" style="fill:var(--color3,#ffd900)" d="M22.491 19.431c2.526-1.416 4.44-2.496 4.605-2.579.528-.287 1.073-1.046 0-1.635a569.69 569.69 0 0 1-4.605-2.579l-3.318 3.422 3.318 3.372z"/><path fill="#f43249" style="fill:var(--color4,#f43249)" d="M19.173 16.059 8.608 26.933c.248.034.528-.034.858-.219.693-.387 8.039-4.485 13.025-7.283l-3.318-3.372z"/><path fill="#00ee76" style="fill:var(--color5,#00ee76)" d="m19.173 16.059 3.318-3.405S10.21 5.809 9.467 5.405c-.28-.17-.593-.22-.874-.17l10.581 10.824z"/><path fill="#00d3ff" style="fill:var(--color6,#00d3ff)" d="M19.173 16.059 8.592 5.235c-.43.101-.792.489-.792 1.281v19.136c0 .725.281 1.248.809 1.298l10.565-10.891z"/><path fill="#fff" style="fill:var(--color2,#fff)" d="M54.047 17.384c-1.898 0-3.467 1.5-3.467 3.557 0 2.04 1.552 3.557 3.467 3.557s3.466-1.5 3.466-3.557-1.552-3.557-3.466-3.557zm0 5.699c-1.04 0-1.948-.894-1.948-2.157 0-1.281.908-2.158 1.948-2.158s1.947.876 1.947 2.158c0 1.264-.908 2.157-1.947 2.157zm-7.544-5.699c-1.915 0-3.467 1.5-3.467 3.557 0 2.04 1.552 3.557 3.467 3.557s3.467-1.5 3.467-3.557-1.552-3.557-3.467-3.557zm0 5.699c-1.04 0-1.947-.894-1.947-2.157 0-1.281.908-2.158 1.947-2.158s1.948.876 1.948 2.158c0 1.264-.892 2.157-1.948 2.157zm-8.964-4.603v1.5h3.499c-.099.843-.379 1.467-.792 1.888-.512.522-1.304 1.096-2.707 1.096-2.163 0-3.83-1.787-3.83-3.995s1.667-4.029 3.83-4.029c1.172 0 2.014.472 2.641 1.079l1.039-1.063c-.875-.859-2.047-1.517-3.681-1.517-2.955 0-5.431 2.478-5.431 5.496s2.476 5.496 5.431 5.496c1.601 0 2.79-.539 3.747-1.551.974-.995 1.271-2.394 1.271-3.524 0-.354-.033-.674-.083-.944l-4.935.068zm36.68 1.163c-.281-.792-1.172-2.259-2.955-2.259s-3.252 1.433-3.252 3.557c0 1.989 1.469 3.557 3.417 3.557 1.585 0 2.493-.995 2.872-1.568l-1.172-.809c-.397.59-.924.978-1.701.978s-1.32-.354-1.668-1.079l4.606-1.972-.148-.404zm-4.688 1.198c-.033-1.366 1.04-2.074 1.799-2.074.611 0 1.106.303 1.287.759l-3.086 1.315zm-3.748 3.422h1.519V13.844h-1.519v10.419zm-2.475-6.086h-.049c-.346-.422-.99-.792-1.816-.792-1.733 0-3.301 1.568-3.301 3.557s1.585 3.541 3.301 3.541c.825 0 1.469-.371 1.816-.809h.049v.506c0 1.366-.71 2.09-1.849 2.09-.925 0-1.503-.691-1.733-1.264l-1.32.573c.379.944 1.387 2.107 3.054 2.107 1.783 0 3.285-1.079 3.285-3.692v-6.39h-1.436v.574zm-1.734 4.906c-1.04 0-1.915-.894-1.915-2.141s.875-2.158 1.915-2.158c1.024 0 1.849.911 1.849 2.158-.001 1.23-.826 2.141-1.849 2.141zm19.727-9.239H77.67v10.419h1.518v-3.945h2.113c1.684 0 3.335-1.248 3.335-3.237s-1.651-3.237-3.335-3.237zm.049 5.025h-2.146v-3.575h2.146c1.122 0 1.783.961 1.783 1.787-.016.809-.66 1.788-1.783 1.788zm9.344-1.501c-1.09 0-2.229.489-2.691 1.602l1.337.573c.298-.573.826-.759 1.387-.759.792 0 1.585.489 1.601 1.348v.102c-.281-.169-.858-.405-1.585-.405-1.452 0-2.922.826-2.922 2.344 0 1.399 1.189 2.293 2.509 2.293 1.024 0 1.585-.472 1.931-1.028h.05v.809h1.468v-3.996c-.016-1.837-1.353-2.883-3.086-2.883zm-.182 5.698c-.495 0-1.189-.253-1.189-.876 0-.809.858-1.113 1.601-1.113.661 0 .974.152 1.387.354-.116.961-.925 1.635-1.8 1.635zm8.568-5.462-1.733 4.501h-.05l-1.799-4.501h-1.634l2.707 6.305-1.535 3.524h1.585l4.143-9.829H99.08zm-13.603 6.659h1.519V13.844h-1.519v10.419zM35.093 10.563c-.459 0-.881-.112-1.268-.335s-.695-.528-.924-.915c-.225-.391-.337-.826-.337-1.304s.112-.91.337-1.297c.229-.391.537-.699.924-.922s.81-.335 1.268-.335c.364 0 .704.066 1.019.198s.578.316.789.553l-.526.532a1.59 1.59 0 0 0-.567-.41 1.756 1.756 0 0 0-.722-.143c-.31 0-.6.075-.87.225s-.486.364-.648.642-.243.596-.243.956.081.678.243.956.378.492.648.642c.27.15.562.225.877.225.288 0 .528-.043.722-.13s.367-.203.519-.348c.099-.1.182-.225.25-.375.072-.15.119-.314.142-.492h-1.639v-.683h2.354c.022.127.034.259.034.396 0 .309-.047.608-.142.894a1.878 1.878 0 0 1-.452.737c-.454.487-1.05.73-1.788.73zM38.178 5.565h2.934v.73h-2.179v1.352h1.963v.724h-1.963v1.352h2.179v.73h-2.934V5.565zM42.861 6.296h-1.349v-.73h3.454v.73h-1.349v4.157h-.755V6.296zM46.941 5.565h.755v4.888h-.755V5.565zM49.608 6.296h-1.349v-.73h3.454v.73h-1.349v4.157h-.755V6.296zM55.816 10.563c-.468 0-.893-.112-1.275-.335a2.47 2.47 0 0 1-.904-.928c-.216-.391-.324-.822-.324-1.29s.108-.897.324-1.283a2.47 2.47 0 0 1 2.179-1.269c.468 0 .89.114 1.268.341a2.552 2.552 0 0 1 1.235 2.211c0 .468-.11.899-.331 1.29a2.423 2.423 0 0 1-.897.928 2.483 2.483 0 0 1-1.275.335zm0-.731c.319 0 .612-.077.877-.232s.474-.369.627-.642c.153-.278.229-.594.229-.949s-.077-.669-.229-.942c-.153-.278-.362-.494-.627-.649s-.558-.232-.877-.232a1.707 1.707 0 0 0-1.511.881c-.153.273-.229.587-.229.942s.076.671.229.949c.157.273.369.487.634.642s.558.232.877.232zM59.013 5.565h.897l2.159 3.557h.04l-.04-.942V5.565h.749v4.888h-.789l-2.267-3.741h-.04l.04.942v2.799h-.749V5.565z"/></symbol><symbol id="icon-arrowRight" viewBox="0 0 54 32"><path d="M53.414 17.414a2 2 0 0 0 0-2.828L40.686 1.858a2 2 0 1 0-2.828 2.828L49.172 16 37.858 27.314a2 2 0 1 0 2.828 2.828l12.728-12.728zM0 18h52v-4H0v4z"/></symbol><symbol id="icon-inst" viewBox="0 0 32 32"><path d="M16 2.884c4.272 0 4.779.016 6.467.093 1.557.072 2.405.331 2.971.552a4.96 4.96 0 0 1 1.84 1.195 4.987 4.987 0 0 1 1.2 1.843c.219.565.48 1.413.549 2.971.077 1.688.093 2.195.093 6.467s-.016 4.779-.093 6.467c-.072 1.56-.331 2.405-.552 2.971a5.313 5.313 0 0 1-3.035 3.035c-.565.219-1.413.48-2.971.552-1.688.077-2.195.093-6.467.093s-4.779-.016-6.467-.093c-1.56-.072-2.405-.331-2.971-.552a4.969 4.969 0 0 1-1.84-1.197 4.984 4.984 0 0 1-1.2-1.84c-.219-.565-.48-1.413-.549-2.971-.077-1.688-.093-2.195-.093-6.467s.016-4.779.093-6.467c.072-1.56.331-2.405.552-2.971a4.977 4.977 0 0 1 1.197-1.84 4.984 4.984 0 0 1 1.84-1.2c.565-.219 1.413-.48 2.971-.549 1.688-.077 2.195-.093 6.467-.093l-.003.003zm0-2.885c-4.344 0-4.888.019-6.595.096-1.707.08-2.869.352-3.885.747a7.847 7.847 0 0 0-2.835 1.845A7.873 7.873 0 0 0 .84 5.522C.445 6.538.173 7.703.096 9.407.019 11.108 0 11.655 0 16.002s.019 4.891.096 6.597c.08 1.707.347 2.867.744 3.883a7.847 7.847 0 0 0 1.845 2.835 7.873 7.873 0 0 0 2.835 1.845c1.016.395 2.181.667 3.885.744 1.701.077 2.251.096 6.595.096 4.347 0 4.891-.019 6.597-.096 1.707-.08 2.867-.347 3.883-.747a8.189 8.189 0 0 0 4.68-4.677c.395-1.016.667-2.181.744-3.885.077-1.701.096-2.248.096-6.595s-.019-4.888-.096-6.595c-.08-1.707-.347-2.867-.747-3.883a7.829 7.829 0 0 0-1.843-2.835A7.852 7.852 0 0 0 26.479.844C25.463.449 24.298.177 22.594.1 20.893.02 20.346.001 15.999.001v-.003zm0 7.786c-1.079 0-2.147.213-3.144.625s-1.903 1.018-2.665 1.781A8.224 8.224 0 0 0 7.785 16a8.203 8.203 0 0 0 5.071 7.59 8.213 8.213 0 0 0 3.144.625 8.215 8.215 0 0 0 0-16.43v-.003zm0 13.552a5.335 5.335 0 1 1 3.771-1.565c-1 1-2.357 1.562-3.771 1.562v.003zM26.461 7.46a1.931 1.931 0 0 1-.562 1.358 1.913 1.913 0 0 1-1.358.562 1.931 1.931 0 0 1-1.358-.562 1.913 1.913 0 0 1-.562-1.358 1.921 1.921 0 1 1 3.84 0z"/></symbol><symbol id="icon-twit" viewBox="0 0 35 32"><path d="M10.979 31.694c13.172 0 20.378-12.079 20.378-22.551 0-.343 0-.684-.02-1.024a15.512 15.512 0 0 0 3.572-4.102 13.244 13.244 0 0 1-4.113 1.245c1.495-.989 2.615-2.548 3.148-4.384a13.55 13.55 0 0 1-4.547 1.926A6.988 6.988 0 0 0 25.333.41a6.574 6.574 0 0 0-4.541.835 7.67 7.67 0 0 0-3.148 3.715 8.717 8.717 0 0 0-.454 5.068 18.835 18.835 0 0 1-8.175-2.403 20.869 20.869 0 0 1-6.586-5.876 8.669 8.669 0 0 0-.785 5.775c.413 1.967 1.487 3.683 3.002 4.806a6.587 6.587 0 0 1-3.249-.992v.099c0 1.833.573 3.604 1.62 5.018 1.047 1.417 2.505 2.388 4.125 2.752a6.476 6.476 0 0 1-3.232.134c.457 1.577 1.347 2.953 2.548 3.939 1.199.989 2.647 1.536 4.143 1.565-2.537 2.205-5.673 3.404-8.896 3.401A13 13 0 0 1 0 28.13a18.878 18.878 0 0 0 10.979 3.555z"/></symbol><symbol id="icon-fb" viewBox="0 0 32 32"><path d="M15.967.077a16.02 16.02 0 0 1 2.504 31.845V20.727h3.73l.713-4.63h-4.446v-3.004c0-1.266.622-2.505 2.611-2.505H23.1V6.65s-.214-.037-.561-.085a25.742 25.742 0 0 0-2.368-.214 15.998 15.998 0 0 0-.657-.013c-3.658 0-6.053 2.216-6.053 6.232v3.527H9.397v4.63h4.069v11.195A16.027 16.027 0 0 1 5.123 4.355 16.025 16.025 0 0 1 15.965.076z"/></symbol><symbol id="icon-pinterest" viewBox="0 0 30 32"><path d="M25.17 26.515a14.734 14.734 0 0 1-10.389 4.267 14.73 14.73 0 0 1-4.385-.663c.606-.985 1.493-2.575 1.818-3.851l.924-3.516c.475.924 1.887 1.702 3.382 1.702 4.454 0 7.664-4.099 7.664-9.197 0-4.89-3.991-8.541-9.11-8.541-6.388 0-9.771 4.282-9.771 8.943 0 2.178 1.158 4.866 3.006 5.73.278.133.439.074.498-.197l.143-.574.271-1.104a.446.446 0 0 0-.099-.426c-.606-.739-1.094-2.104-1.094-3.37 0-3.259 2.471-6.41 6.679-6.41 3.639 0 6.181 2.469 6.181 6.011 0 3.991-2.02 6.763-4.646 6.763-1.449 0-2.545-1.205-2.193-2.676.153-.628.352-1.274.547-1.902.35-1.133.682-2.212.682-3.025 0-1.133-.606-2.082-1.872-2.082-1.483 0-2.675 1.532-2.675 3.589 0 1.301.436 2.19.436 2.19s-1.458 6.193-1.724 7.349c-.296 1.276-.185 3.072-.049 4.242A14.79 14.79 0 0 1 1.285 9.971a14.802 14.802 0 0 1 3.63-4.98 14.767 14.767 0 0 1 11.476-3.688 14.747 14.747 0 0 1 13.148 14.72 14.722 14.722 0 0 1-4.368 10.49z"/></symbol></defs></svg>