<svg aria-hidden="true" style="width:0;height:0;position:absolute;overflow:hidden" xmlns="http://www.w3.org/2000/svg"><defs><symbol id="icon-bi_book" viewBox="0 0 32 32"><path d="M2 5.656c1.77-.74 4.308-1.538 6.776-1.786 2.66-.268 4.916.126 6.224 1.504v19.492c-1.87-1.06-4.24-1.206-6.426-.986-2.36.24-4.74.922-6.574 1.622V5.656zm15-.282c1.308-1.378 3.564-1.772 6.224-1.504 2.468.248 5.006 1.046 6.776 1.786v19.846c-1.836-.7-4.214-1.384-6.574-1.62-2.188-.222-4.556-.078-6.426.984V5.374zm-1-1.808C14.03 1.872 11.174 1.62 8.574 1.88 5.546 2.186 2.49 3.224.586 4.09A.992.992 0 0 0 0 5v22a1.003 1.003 0 0 0 .928.998.99.99 0 0 0 .486-.087c1.764-.8 4.606-1.762 7.36-2.04 2.818-.284 5.18.174 6.446 1.754a1.002 1.002 0 0 0 1.213.276.982.982 0 0 0 .347-.276c1.266-1.58 3.628-2.038 6.444-1.754 2.756.278 5.6 1.24 7.362 2.04a1.004 1.004 0 0 0 .955-.07A1 1 0 0 0 32 27V5a.997.997 0 0 0-.586-.91c-1.904-.866-4.96-1.904-7.988-2.21-2.6-.262-5.456-.008-7.426 1.686z"/></symbol><symbol id="icon-cil_microphone" viewBox="0 0 32 32"><path d="M16 20.5a6.007 6.007 0 0 0 6-6V7a5.996 5.996 0 0 0-6-6 6.002 6.002 0 0 0-6 6v7.5a6.007 6.007 0 0 0 6 6zM12 7a4.003 4.003 0 0 1 4-4 4.001 4.001 0 0 1 4 4v7.5a4.001 4.001 0 0 1-6.828 2.828A4.001 4.001 0 0 1 12 14.5V7z"/><path d="M25 11v3.5c0 4.962-4.038 9-9 9s-9-4.038-9-9V11H5v3.5c0 5.728 4.402 10.447 10 10.954V31h2v-5.546c5.599-.507 10-5.226 10-10.954V11h-2z"/></symbol><symbol id="icon-bi_journals" viewBox="0 0 32 32"><path d="M10 0h16a4.003 4.003 0 0 1 4 4v20a4.001 4.001 0 0 1-4 4 4.001 4.001 0 0 1-4 4H6a4.001 4.001 0 0 1-4-4h2a2 2 0 0 0 2 2h16a2 2 0 0 0 2-2V8a2 2 0 0 0-2-2H6a2 2 0 0 0-2 2H2a4.003 4.003 0 0 1 4-4h16a4.003 4.003 0 0 1 4 4v18a2 2 0 0 0 2-2V4a2 2 0 0 0-2-2H10a2 2 0 0 0-2 2H6a4.003 4.003 0 0 1 4-4z"/><path d="M2 12v-1a.997.997 0 0 1 1-1 .997.997 0 0 1 1 1v1h1a.997.997 0 0 1 1 1 .997.997 0 0 1-1 1H1a.997.997 0 0 1-1-1 .997.997 0 0 1 1-1h1zm0 6v-1a.997.997 0 0 1 1-1 .997.997 0 0 1 1 1v1h1a.997.997 0 0 1 1 1 .997.997 0 0 1-1 1H1a.997.997 0 0 1-1-1 .997.997 0 0 1 1-1h1zm0 5v1H1a.997.997 0 0 0-1 1 .997.997 0 0 0 1 1h4a.997.997 0 0 0 1-1 .997.997 0 0 0-1-1H4v-1a.997.997 0 0 0-1-1 .997.997 0 0 0-1 1z"/></symbol><symbol id="icon-Vector" viewBox="0 0 32 32"><path d="M16 .82A15.614 15.614 0 0 0 .683 16.683v14.769h5.689a2.997 2.997 0 0 0 3.063-2.921v-7.286a3 3 0 0 0-3.063-2.922H2.871v-1.641A13.425 13.425 0 0 1 16 3.007a13.428 13.428 0 0 1 13.129 13.675v1.641h-3.501a2.998 2.998 0 0 0-3.063 2.922v7.297a2.997 2.997 0 0 0 3.063 2.91h5.689V16.683A15.61 15.61 0 0 0 16 .82zM6.373 20.513a.82.82 0 0 1 .875.733v7.297a.822.822 0 0 1-.875.733H2.872v-8.763h3.501zm18.379 8.019v-7.286a.822.822 0 0 1 .875-.733h3.501v8.752h-3.501a.821.821 0 0 1-.875-.733z"/></symbol><symbol id="icon-iconoir_music-1" viewBox="0 0 32 32"><path fill="none" stroke-linejoin="round" stroke-linecap="round" stroke-width="1.5" d="M26.667 18.667V4L12 6.667v14.667"/><path fill="none" stroke-linejoin="round" stroke-linecap="round" stroke-width="1.5" d="M22.667 25.333H24a2.668 2.668 0 0 0 2.667-2.667v-4h-4A2.668 2.668 0 0 0 20 21.333v1.333a2.668 2.668 0 0 0 2.667 2.667zM8 28h1.333A2.67 2.67 0 0 0 12 25.333v-4H8A2.668 2.668 0 0 0 5.333 24v1.333A2.668 2.668 0 0 0 8 28z"/></symbol><symbol id="icon-et_documents" viewBox="0 0 32 32"><path d="M1.423 26.853h16.93c.778 0 1.412-.633 1.412-1.412V7.559c0-.022-.009-.04-.012-.061s-.007-.039-.012-.058a.457.457 0 0 0-.115-.214L13.039.639a.475.475 0 0 0-.272-.127c-.02-.002-.039-.011-.06-.011H1.418C.637.501.001 1.134.001 1.913v23.529a1.42 1.42 0 0 0 1.423 1.412zM13.177 2.107l4.982 4.982h-4.511a.472.472 0 0 1-.471-.471V2.107zM.941 1.912c0-.26.214-.471.476-.471h10.818v5.176c0 .778.633 1.412 1.412 1.412h5.176v17.412a.47.47 0 0 1-.471.471H1.422a.476.476 0 0 1-.482-.47V1.913z"/><path d="M4.235 11.794h11.294a.472.472 0 0 0 0-.942H4.235a.473.473 0 0 0-.471.471.472.472 0 0 0 .471.471zM4.235 15.559h11.294a.472.472 0 0 0 0-.942H4.235a.473.473 0 0 0-.471.471.472.472 0 0 0 .471.471zM4.235 8.029h4.706a.472.472 0 0 0 0-.942H4.235a.473.473 0 0 0-.471.471.472.472 0 0 0 .471.471zM4.235 19.323h11.294a.472.472 0 0 0 0-.942H4.235a.473.473 0 0 0-.471.471.473.473 0 0 0 .471.471zM4.235 23.088h11.294a.472.472 0 0 0 0-.942H4.235a.473.473 0 0 0-.471.471.473.473 0 0 0 .471.471z"/><path d="M20.235 5.206h4.235v5.176c0 .778.633 1.412 1.412 1.412h5.177v17.412a.473.473 0 0 1-.471.471h-16.93a.476.476 0 0 1-.482-.47v-.941a.473.473 0 0 0-.471-.471.467.467 0 0 0-.471.471v.941a1.42 1.42 0 0 0 1.423 1.412h16.93c.778 0 1.412-.633 1.412-1.412V11.325c0-.022-.009-.04-.012-.061a.541.541 0 0 0-.127-.272l-6.587-6.587a.465.465 0 0 0-.272-.126c-.02-.003-.039-.012-.06-.012h-4.706a.473.473 0 0 0-.471.471.472.472 0 0 0 .471.471zm5.647 5.647a.473.473 0 0 1-.471-.471V5.871l4.982 4.982h-4.511z"/><path d="M22.118 15.559h5.647a.473.473 0 0 0 .471-.471.472.472 0 0 0-.471-.471h-5.647a.472.472 0 0 0 0 .942zM22.118 19.323h5.647a.473.473 0 0 0 .471-.471.473.473 0 0 0-.471-.471h-5.647a.472.472 0 0 0 0 .942zM22.118 23.088h5.647a.473.473 0 0 0 .471-.471.473.473 0 0 0-.471-.471h-5.647a.472.472 0 0 0 0 .942zM22.118 26.853h5.647a.473.473 0 0 0 .471-.471.473.473 0 0 0-.471-.471h-5.647a.472.472 0 0 0 0 .942z"/></symbol></defs></svg>