<svg aria-hidden="true" style="position: absolute; width: 0; height: 0; overflow: hidden;" version="1.1" xmlns="http://www.w3.org/2000/svg" xmlns:xlink="http://www.w3.org/1999/xlink">
<defs>
<symbol id="icon-bi_book" viewBox="0 0 32 32">
<path  d="M2 5.656c1.77-0.74 4.308-1.538 6.776-1.786 2.66-0.268 4.916 0.126 6.224 1.504v19.492c-1.87-1.060-4.24-1.206-6.426-0.986-2.36 0.24-4.74 0.922-6.574 1.622v-19.846zM17 5.374c1.308-1.378 3.564-1.772 6.224-1.504 2.468 0.248 5.006 1.046 6.776 1.786v19.846c-1.836-0.7-4.214-1.384-6.574-1.62-2.188-0.222-4.556-0.078-6.426 0.984v-19.492zM16 3.566c-1.97-1.694-4.826-1.946-7.426-1.686-3.028 0.306-6.084 1.344-7.988 2.21-0.175 0.079-0.323 0.207-0.427 0.369s-0.159 0.349-0.159 0.541v22c0 0.167 0.042 0.332 0.122 0.479s0.196 0.271 0.337 0.362c0.141 0.091 0.302 0.144 0.469 0.157s0.334-0.018 0.486-0.087c1.764-0.8 4.606-1.762 7.36-2.040 2.818-0.284 5.18 0.174 6.446 1.754 0.094 0.117 0.212 0.211 0.347 0.276s0.283 0.098 0.433 0.098c0.15 0 0.298-0.034 0.433-0.098s0.254-0.159 0.347-0.276c1.266-1.58 3.628-2.038 6.444-1.754 2.756 0.278 5.6 1.24 7.362 2.040 0.152 0.069 0.32 0.099 0.486 0.087s0.328-0.066 0.469-0.157c0.141-0.090 0.256-0.215 0.337-0.362s0.122-0.311 0.122-0.479v-22c-0-0.192-0.055-0.38-0.159-0.541s-0.252-0.289-0.427-0.369c-1.904-0.866-4.96-1.904-7.988-2.21-2.6-0.262-5.456-0.008-7.426 1.686z"></path>
</symbol>
<symbol id="icon-cil_microphone" viewBox="0 0 32 32">
<path  d="M16 20.5c1.591-0.002 3.116-0.634 4.241-1.759s1.758-2.65 1.759-4.241v-7.5c0-1.591-0.632-3.117-1.757-4.243s-2.651-1.757-4.243-1.757-3.117 0.632-4.243 1.757c-1.125 1.125-1.757 2.651-1.757 4.243v7.5c0.002 1.591 0.634 3.116 1.759 4.241s2.65 1.758 4.241 1.759zM12 7c0-1.061 0.421-2.078 1.172-2.828s1.768-1.172 2.828-1.172 2.078 0.421 2.828 1.172c0.75 0.75 1.172 1.768 1.172 2.828v7.5c0 1.061-0.421 2.078-1.172 2.828s-1.767 1.172-2.828 1.172-2.078-0.421-2.828-1.172c-0.75-0.75-1.172-1.768-1.172-2.828v-7.5z"></path>
<path  d="M25 11v3.5c0 4.962-4.038 9-9 9s-9-4.038-9-9v-3.5h-2v3.5c0 5.728 4.402 10.447 10 10.954v5.546h2v-5.546c5.599-0.507 10-5.226 10-10.954v-3.5h-2z"></path>
</symbol>
<symbol id="icon-bi_journals" viewBox="0 0 32 32">
<path  d="M10 0h16c1.061 0 2.078 0.421 2.828 1.172s1.172 1.768 1.172 2.828v20c0 1.061-0.421 2.078-1.172 2.828s-1.767 1.172-2.828 1.172c0 1.061-0.421 2.078-1.172 2.828s-1.767 1.172-2.828 1.172h-16c-1.061 0-2.078-0.421-2.828-1.172s-1.172-1.767-1.172-2.828h2c0 0.53 0.211 1.039 0.586 1.414s0.884 0.586 1.414 0.586h16c0.53 0 1.039-0.211 1.414-0.586s0.586-0.884 0.586-1.414v-20c0-0.53-0.211-1.039-0.586-1.414s-0.884-0.586-1.414-0.586h-16c-0.53 0-1.039 0.211-1.414 0.586s-0.586 0.884-0.586 1.414h-2c0-1.061 0.421-2.078 1.172-2.828s1.768-1.172 2.828-1.172h16c1.061 0 2.078 0.421 2.828 1.172s1.172 1.768 1.172 2.828v18c0.53 0 1.039-0.211 1.414-0.586s0.586-0.884 0.586-1.414v-20c0-0.53-0.211-1.039-0.586-1.414s-0.884-0.586-1.414-0.586h-16c-0.53 0-1.039 0.211-1.414 0.586s-0.586 0.884-0.586 1.414h-2c0-1.061 0.421-2.078 1.172-2.828s1.768-1.172 2.828-1.172v0z"></path>
<path  d="M2 12v-1c0-0.265 0.105-0.52 0.293-0.707s0.442-0.293 0.707-0.293c0.265 0 0.52 0.105 0.707 0.293s0.293 0.442 0.293 0.707v1h1c0.265 0 0.52 0.105 0.707 0.293s0.293 0.442 0.293 0.707c0 0.265-0.105 0.52-0.293 0.707s-0.442 0.293-0.707 0.293h-4c-0.265 0-0.52-0.105-0.707-0.293s-0.293-0.442-0.293-0.707c0-0.265 0.105-0.52 0.293-0.707s0.442-0.293 0.707-0.293h1zM2 18v-1c0-0.265 0.105-0.52 0.293-0.707s0.442-0.293 0.707-0.293c0.265 0 0.52 0.105 0.707 0.293s0.293 0.442 0.293 0.707v1h1c0.265 0 0.52 0.105 0.707 0.293s0.293 0.442 0.293 0.707c0 0.265-0.105 0.52-0.293 0.707s-0.442 0.293-0.707 0.293h-4c-0.265 0-0.52-0.105-0.707-0.293s-0.293-0.442-0.293-0.707c0-0.265 0.105-0.52 0.293-0.707s0.442-0.293 0.707-0.293h1zM2 23v1h-1c-0.265 0-0.52 0.105-0.707 0.293s-0.293 0.442-0.293 0.707c0 0.265 0.105 0.52 0.293 0.707s0.442 0.293 0.707 0.293h4c0.265 0 0.52-0.105 0.707-0.293s0.293-0.442 0.293-0.707c0-0.265-0.105-0.52-0.293-0.707s-0.442-0.293-0.707-0.293h-1v-1c0-0.265-0.105-0.52-0.293-0.707s-0.442-0.293-0.707-0.293c-0.265 0-0.52 0.105-0.707 0.293s-0.293 0.442-0.293 0.707z"></path>
</symbol>
<symbol id="icon-Vector" viewBox="0 0 32 32">
<path  d="M16 0.82c-4.133 0.078-8.066 1.791-10.938 4.765s-4.446 6.965-4.379 11.098v14.769h5.689c0.793 0.018 1.561-0.28 2.135-0.827s0.908-1.3 0.928-2.094v-7.286c-0.020-0.793-0.354-1.546-0.928-2.094s-1.342-0.845-2.135-0.828h-3.501v-1.641c-0.067-3.553 1.277-6.988 3.738-9.551s5.838-4.047 9.391-4.124c3.553 0.078 6.93 1.561 9.391 4.124s3.805 5.998 3.738 9.551v1.641h-3.501c-0.793-0.018-1.561 0.28-2.135 0.828s-0.908 1.3-0.928 2.094v7.297c0.023 0.791 0.358 1.541 0.932 2.086s1.34 0.841 2.131 0.824h5.689v-14.769c0.067-4.133-1.507-8.124-4.379-11.098s-6.805-4.687-10.938-4.765zM6.373 20.513c0.213-0.015 0.423 0.053 0.586 0.189s0.267 0.332 0.289 0.544v7.297c-0.022 0.212-0.126 0.407-0.289 0.544s-0.373 0.205-0.586 0.189h-3.501v-8.763h3.501zM24.752 28.532v-7.286c0.022-0.212 0.126-0.407 0.289-0.544s0.374-0.205 0.586-0.189h3.501v8.752h-3.501c-0.212 0.015-0.423-0.052-0.586-0.189s-0.267-0.332-0.289-0.544z"></path>
</symbol>
<symbol id="icon-iconoir_music-1" viewBox="0 0 32 32">
<path fill="none"  stroke-linejoin="round" stroke-linecap="round" stroke-miterlimit="4" stroke-width="1.5" d="M26.667 18.667v-14.667l-14.667 2.667v14.667"></path>
<path fill="none"  stroke-linejoin="round" stroke-linecap="round" stroke-miterlimit="4" stroke-width="1.5" d="M22.667 25.333h1.333c0.707 0 1.386-0.281 1.886-0.781s0.781-1.178 0.781-1.886v-4h-4c-0.707 0-1.386 0.281-1.886 0.781s-0.781 1.178-0.781 1.886v1.333c0 0.707 0.281 1.386 0.781 1.886s1.178 0.781 1.886 0.781z"></path>
<path fill="none"  stroke-linejoin="round" stroke-linecap="round" stroke-miterlimit="4" stroke-width="1.5" d="M8 28h1.333c0.707 0 1.385-0.281 1.886-0.781s0.781-1.178 0.781-1.886v-4h-4c-0.707 0-1.386 0.281-1.886 0.781s-0.781 1.178-0.781 1.886v1.333c0 0.707 0.281 1.386 0.781 1.886s1.178 0.781 1.886 0.781z"></path>
</symbol>
<symbol id="icon-et_documents" viewBox="0 0 32 32">
<path d="M1.423 26.853h16.93c0.778 0 1.412-0.633 1.412-1.412v-17.882c0-0.022-0.009-0.040-0.012-0.061s-0.007-0.039-0.012-0.058c-0.018-0.080-0.058-0.154-0.115-0.214l-6.587-6.587c-0.075-0.071-0.17-0.115-0.272-0.127-0.020-0.002-0.039-0.011-0.060-0.011h-11.289c-0.781 0-1.417 0.633-1.417 1.412v23.529c0 0.778 0.638 1.412 1.423 1.412zM13.177 2.107l4.982 4.982h-4.511c-0.125 0-0.245-0.050-0.333-0.138s-0.138-0.208-0.138-0.333v-4.511zM0.941 1.912c0-0.26 0.214-0.471 0.476-0.471h10.818v5.176c0 0.778 0.633 1.412 1.412 1.412h5.176v17.412c0 0.125-0.049 0.244-0.138 0.333s-0.208 0.138-0.333 0.138h-16.93c-0.063 0.001-0.125-0.011-0.183-0.034s-0.111-0.058-0.156-0.101-0.080-0.096-0.105-0.153c-0.025-0.058-0.038-0.119-0.038-0.182v-23.529z"></path>
<path d="M4.235 11.794h11.294c0.125 0 0.245-0.050 0.333-0.138s0.138-0.208 0.138-0.333-0.050-0.245-0.138-0.333c-0.088-0.088-0.208-0.138-0.333-0.138h-11.294c-0.125 0-0.244 0.050-0.333 0.138s-0.138 0.208-0.138 0.333 0.050 0.245 0.138 0.333c0.088 0.088 0.208 0.138 0.333 0.138z"></path>
<path d="M4.235 15.559h11.294c0.125 0 0.245-0.050 0.333-0.138s0.138-0.208 0.138-0.333-0.050-0.245-0.138-0.333c-0.088-0.088-0.208-0.138-0.333-0.138h-11.294c-0.125 0-0.244 0.050-0.333 0.138s-0.138 0.208-0.138 0.333 0.050 0.245 0.138 0.333c0.088 0.088 0.208 0.138 0.333 0.138z"></path>
<path d="M4.235 8.029h4.706c0.125 0 0.245-0.050 0.333-0.138s0.138-0.208 0.138-0.333c0-0.125-0.050-0.245-0.138-0.333s-0.208-0.138-0.333-0.138h-4.706c-0.125 0-0.244 0.050-0.333 0.138s-0.138 0.208-0.138 0.333c0 0.125 0.050 0.245 0.138 0.333s0.208 0.138 0.333 0.138z"></path>
<path d="M4.235 19.323h11.294c0.125 0 0.245-0.050 0.333-0.138s0.138-0.208 0.138-0.333-0.050-0.244-0.138-0.333c-0.088-0.088-0.208-0.138-0.333-0.138h-11.294c-0.125 0-0.244 0.050-0.333 0.138s-0.138 0.208-0.138 0.333 0.050 0.244 0.138 0.333c0.088 0.088 0.208 0.138 0.333 0.138z"></path>
<path d="M4.235 23.088h11.294c0.125 0 0.245-0.050 0.333-0.138s0.138-0.208 0.138-0.333-0.050-0.244-0.138-0.333c-0.088-0.088-0.208-0.138-0.333-0.138h-11.294c-0.125 0-0.244 0.050-0.333 0.138s-0.138 0.208-0.138 0.333 0.050 0.244 0.138 0.333c0.088 0.088 0.208 0.138 0.333 0.138z"></path>
<path d="M20.235 5.206h4.235v5.176c0 0.778 0.633 1.412 1.412 1.412h5.177v17.412c0 0.125-0.050 0.244-0.138 0.333s-0.208 0.138-0.333 0.138h-16.93c-0.063 0.001-0.125-0.011-0.183-0.034s-0.111-0.058-0.156-0.101c-0.045-0.044-0.080-0.096-0.105-0.153s-0.038-0.119-0.038-0.182v-0.941c0-0.125-0.050-0.244-0.138-0.333s-0.208-0.138-0.333-0.138-0.245 0.049-0.333 0.138c-0.088 0.088-0.138 0.208-0.138 0.333v0.941c0 0.778 0.638 1.412 1.423 1.412h16.93c0.778 0 1.412-0.633 1.412-1.412v-17.882c0-0.022-0.009-0.040-0.012-0.061-0.003-0.020-0.007-0.039-0.012-0.058-0.018-0.080-0.058-0.154-0.115-0.214l-6.587-6.587c-0.074-0.071-0.17-0.115-0.272-0.126-0.020-0.003-0.039-0.012-0.060-0.012h-4.706c-0.125 0-0.244 0.050-0.333 0.138s-0.138 0.208-0.138 0.333 0.050 0.245 0.138 0.333c0.088 0.088 0.208 0.138 0.333 0.138zM25.882 10.853c-0.125 0-0.244-0.050-0.333-0.138s-0.138-0.208-0.138-0.333v-4.511l4.982 4.982h-4.511z"></path>
<path d="M22.118 15.559h5.647c0.125 0 0.244-0.050 0.333-0.138s0.138-0.208 0.138-0.333-0.050-0.245-0.138-0.333c-0.088-0.088-0.208-0.138-0.333-0.138h-5.647c-0.125 0-0.245 0.050-0.333 0.138s-0.138 0.208-0.138 0.333 0.049 0.245 0.138 0.333c0.088 0.088 0.208 0.138 0.333 0.138z"></path>
<path d="M22.118 19.323h5.647c0.125 0 0.244-0.050 0.333-0.138s0.138-0.208 0.138-0.333-0.050-0.244-0.138-0.333c-0.088-0.088-0.208-0.138-0.333-0.138h-5.647c-0.125 0-0.245 0.050-0.333 0.138s-0.138 0.208-0.138 0.333 0.049 0.244 0.138 0.333c0.088 0.088 0.208 0.138 0.333 0.138z"></path>
<path d="M22.118 23.088h5.647c0.125 0 0.244-0.050 0.333-0.138s0.138-0.208 0.138-0.333-0.050-0.244-0.138-0.333c-0.088-0.088-0.208-0.138-0.333-0.138h-5.647c-0.125 0-0.245 0.050-0.333 0.138s-0.138 0.208-0.138 0.333 0.049 0.244 0.138 0.333c0.088 0.088 0.208 0.138 0.333 0.138z"></path>
<path d="M22.118 26.853h5.647c0.125 0 0.244-0.050 0.333-0.138s0.138-0.208 0.138-0.333-0.050-0.244-0.138-0.333c-0.088-0.088-0.208-0.138-0.333-0.138h-5.647c-0.125 0-0.245 0.050-0.333 0.138s-0.138 0.208-0.138 0.333 0.049 0.244 0.138 0.333c0.088 0.088 0.208 0.138 0.333 0.138z"></path>
</symbol>
<symbol id="icon-AppStore" viewBox="0 0 107 32">
<path fill="#000" style="fill: var(--color1, #000)" d="M0 4.267c0-2.356 1.888-4.267 4.216-4.267h98.234c2.329 0 4.216 1.91 4.216 4.267v23.467c0 2.356-1.887 4.267-4.216 4.267h-98.234c-2.328 0-4.216-1.91-4.216-4.267v-23.467z"></path>
<path fill="#fff" style="fill: var(--color2, #fff)" opacity="0.3" d="M0 27.733c0 2.356 1.888 4.267 4.216 4.267h98.234c2.329 0 4.216-1.91 4.216-4.267v-23.467c0-2.356-1.887-4.267-4.216-4.267h-98.234c-2.328 0-4.216 1.91-4.216 4.267v23.467zM0.632 27.733v-23.467c0-2.003 1.604-3.627 3.584-3.627h98.234c1.979 0 3.584 1.624 3.584 3.627v23.467c0 2.003-1.605 3.627-3.584 3.627h-98.234c-1.979 0-3.584-1.624-3.584-3.627z"></path>
<path fill="#fff" style="fill: var(--color2, #fff)" d="M24.104 16.652c-0.011-1.876 0.829-3.289 2.524-4.331-0.948-1.375-2.383-2.131-4.274-2.277-1.791-0.143-3.75 1.056-4.467 1.056-0.758 0-2.492-1.006-3.856-1.006-2.815 0.044-5.807 2.271-5.807 6.803 0 1.339 0.242 2.722 0.726 4.147 0.647 1.875 2.978 6.471 5.41 6.396 1.272-0.030 2.171-0.913 3.826-0.913 1.606 0 2.438 0.913 3.856 0.913 2.454-0.036 4.563-4.213 5.177-6.094-3.291-1.57-3.114-4.598-3.114-4.694zM21.248 8.264c1.378-1.655 1.253-3.162 1.212-3.704-1.217 0.072-2.625 0.839-3.427 1.782-0.883 1.012-1.402 2.263-1.291 3.674 1.315 0.102 2.516-0.583 3.505-1.752z"></path>
<path fill="#fff" style="fill: var(--color2, #fff)" d="M38.947 23.157h-1.396l-0.764-2.442h-2.657l-0.728 2.442h-1.359l2.633-8.315h1.626l2.646 8.315zM36.556 19.69l-0.691-2.171c-0.073-0.222-0.21-0.744-0.412-1.566h-0.025c-0.080 0.354-0.21 0.876-0.388 1.566l-0.679 2.171h2.196z"></path>
<path fill="#fff" style="fill: var(--color2, #fff)" d="M45.718 20.085c0 1.020-0.271 1.826-0.813 2.417-0.486 0.527-1.088 0.79-1.808 0.79-0.777 0-1.335-0.284-1.675-0.851h-0.025v3.158h-1.31v-6.465c0-0.641-0.017-1.299-0.049-1.974h1.152l0.073 0.95h0.025c0.437-0.716 1.1-1.073 1.99-1.073 0.696 0 1.276 0.279 1.741 0.839 0.466 0.56 0.698 1.296 0.698 2.209zM44.383 20.134c0-0.584-0.129-1.065-0.388-1.443-0.283-0.395-0.664-0.592-1.141-0.592-0.323 0-0.617 0.11-0.879 0.327-0.263 0.219-0.435 0.504-0.516 0.858-0.041 0.165-0.061 0.3-0.061 0.406v1c0 0.436 0.132 0.804 0.395 1.105s0.605 0.45 1.025 0.45c0.493 0 0.878-0.194 1.152-0.58s0.413-0.897 0.413-1.53z"></path>
<path fill="#fff" style="fill: var(--color2, #fff)" d="M52.501 20.085c0 1.020-0.271 1.826-0.814 2.417-0.485 0.527-1.088 0.79-1.807 0.79-0.777 0-1.335-0.284-1.674-0.851h-0.025v3.158h-1.31v-6.465c0-0.641-0.017-1.299-0.049-1.974h1.152l0.073 0.95h0.025c0.436-0.716 1.099-1.073 1.99-1.073 0.695 0 1.276 0.279 1.742 0.839 0.464 0.56 0.697 1.296 0.697 2.209zM51.166 20.134c0-0.584-0.13-1.065-0.389-1.443-0.283-0.395-0.662-0.592-1.14-0.592-0.324 0-0.617 0.11-0.88 0.327-0.263 0.219-0.434 0.504-0.515 0.858-0.040 0.165-0.061 0.3-0.061 0.406v1c0 0.436 0.132 0.804 0.393 1.105 0.263 0.3 0.605 0.45 1.026 0.45 0.493 0 0.878-0.194 1.152-0.58s0.413-0.897 0.413-1.53z"></path>
<path fill="#fff" style="fill: var(--color2, #fff)" d="M60.085 20.825c0 0.707-0.242 1.283-0.726 1.727-0.533 0.485-1.275 0.728-2.228 0.728-0.88 0-1.586-0.172-2.12-0.518l0.304-1.11c0.575 0.354 1.206 0.531 1.894 0.531 0.493 0 0.878-0.114 1.154-0.34 0.275-0.226 0.412-0.53 0.412-0.909 0-0.337-0.113-0.622-0.34-0.852-0.226-0.231-0.602-0.445-1.128-0.643-1.432-0.543-2.147-1.338-2.147-2.384 0-0.683 0.251-1.244 0.753-1.68 0.5-0.437 1.168-0.655 2.002-0.655 0.744 0 1.362 0.132 1.856 0.395l-0.328 1.086c-0.461-0.255-0.982-0.382-1.565-0.382-0.461 0-0.821 0.116-1.079 0.346-0.218 0.206-0.328 0.456-0.328 0.753 0 0.329 0.125 0.6 0.375 0.814 0.218 0.197 0.615 0.411 1.19 0.642 0.704 0.288 1.221 0.625 1.553 1.011 0.331 0.385 0.497 0.867 0.497 1.441z"></path>
<path fill="#fff" style="fill: var(--color2, #fff)" d="M64.416 18.161h-1.444v2.911c0 0.74 0.254 1.11 0.764 1.11 0.234 0 0.428-0.021 0.582-0.062l0.036 1.012c-0.258 0.098-0.598 0.148-1.019 0.148-0.517 0-0.922-0.161-1.214-0.481-0.291-0.321-0.437-0.86-0.437-1.616v-3.022h-0.86v-1h0.86v-1.098l1.287-0.395v1.493h1.444v1.001z"></path>
<path fill="#fff" style="fill: var(--color2, #fff)" d="M70.933 20.11c0 0.922-0.259 1.678-0.777 2.27-0.543 0.609-1.263 0.913-2.161 0.913-0.865 0-1.554-0.292-2.068-0.875s-0.771-1.32-0.771-2.208c0-0.929 0.264-1.69 0.795-2.282 0.529-0.592 1.243-0.889 2.141-0.889 0.865 0 1.562 0.292 2.087 0.876 0.503 0.567 0.753 1.298 0.753 2.195zM69.573 20.153c0-0.553-0.116-1.027-0.352-1.423-0.275-0.479-0.667-0.717-1.176-0.717-0.527 0-0.927 0.239-1.201 0.717-0.235 0.396-0.352 0.878-0.352 1.448 0 0.553 0.116 1.027 0.352 1.422 0.283 0.479 0.679 0.717 1.19 0.717 0.5 0 0.893-0.244 1.176-0.73 0.242-0.403 0.363-0.882 0.363-1.435z"></path>
<path fill="#fff" style="fill: var(--color2, #fff)" d="M75.192 18.333c-0.13-0.024-0.268-0.037-0.413-0.037-0.461 0-0.817 0.177-1.068 0.531-0.218 0.312-0.328 0.707-0.328 1.184v3.146h-1.31l0.012-4.108c0-0.691-0.017-1.32-0.049-1.888h1.141l0.048 1.147h0.036c0.138-0.394 0.356-0.712 0.655-0.95 0.292-0.214 0.607-0.321 0.947-0.321 0.121 0 0.23 0.009 0.328 0.024v1.27z"></path>
<path fill="#fff" style="fill: var(--color2, #fff)" d="M81.051 19.875c0 0.239-0.016 0.44-0.048 0.604h-3.931c0.015 0.592 0.205 1.045 0.57 1.358 0.331 0.279 0.76 0.419 1.286 0.419 0.581 0 1.112-0.094 1.59-0.284l0.206 0.925c-0.558 0.247-1.218 0.37-1.977 0.37-0.915 0-1.633-0.274-2.155-0.82s-0.783-1.281-0.783-2.202c0-0.904 0.243-1.657 0.729-2.258 0.509-0.641 1.197-0.962 2.062-0.962 0.85 0 1.493 0.321 1.93 0.962 0.346 0.509 0.52 1.139 0.52 1.887zM79.802 19.53c0.008-0.395-0.077-0.736-0.254-1.024-0.227-0.37-0.575-0.555-1.045-0.555-0.428 0-0.776 0.181-1.042 0.543-0.219 0.288-0.348 0.634-0.388 1.036l2.729 0.001z"></path>
<path fill="#fff" style="fill: var(--color2, #fff)" d="M36.289 9.25c0 0.899-0.265 1.575-0.795 2.030-0.49 0.419-1.188 0.629-2.090 0.629-0.448 0-0.831-0.020-1.151-0.060v-4.911c0.418-0.069 0.869-0.104 1.356-0.104 0.86 0 1.508 0.19 1.945 0.57 0.49 0.43 0.735 1.045 0.735 1.845zM35.459 9.272c0-0.583-0.152-1.029-0.455-1.341s-0.747-0.467-1.33-0.467c-0.248 0-0.459 0.017-0.634 0.052v3.733c0.097 0.015 0.274 0.022 0.532 0.022 0.602 0 1.067-0.17 1.395-0.511s0.493-0.837 0.493-1.489z"></path>
<path fill="#fff" style="fill: var(--color2, #fff)" d="M40.69 10.035c0 0.554-0.156 1.007-0.466 1.363-0.326 0.366-0.758 0.548-1.297 0.548-0.52 0-0.934-0.175-1.242-0.526s-0.462-0.793-0.462-1.326c0-0.557 0.158-1.015 0.477-1.37s0.747-0.533 1.286-0.533c0.52 0 0.937 0.175 1.254 0.525 0.3 0.341 0.451 0.78 0.451 1.318zM39.874 10.061c0-0.332-0.071-0.617-0.211-0.855-0.165-0.287-0.4-0.431-0.706-0.431-0.316 0-0.557 0.144-0.722 0.431-0.141 0.238-0.211 0.527-0.211 0.869 0 0.332 0.071 0.617 0.211 0.855 0.17 0.287 0.408 0.431 0.714 0.431 0.3 0 0.536-0.146 0.706-0.438 0.146-0.242 0.219-0.529 0.219-0.861z"></path>
<path fill="#fff" style="fill: var(--color2, #fff)" d="M46.591 8.265l-1.108 3.6h-0.721l-0.459-1.563c-0.116-0.39-0.211-0.778-0.285-1.163h-0.014c-0.068 0.396-0.163 0.783-0.285 1.163l-0.487 1.563h-0.729l-1.042-3.6h0.809l0.4 1.711c0.097 0.405 0.177 0.79 0.24 1.155h0.014c0.059-0.301 0.156-0.684 0.292-1.148l0.502-1.718h0.641l0.481 1.682c0.116 0.41 0.211 0.805 0.284 1.185h0.022c0.053-0.37 0.134-0.765 0.24-1.185l0.43-1.682 0.773-0.001z"></path>
<path fill="#fff" style="fill: var(--color2, #fff)" d="M50.672 11.865h-0.787v-2.062c0-0.635-0.237-0.953-0.714-0.953-0.234 0-0.422 0.087-0.569 0.262-0.145 0.175-0.219 0.381-0.219 0.617v2.135h-0.787v-2.57c0-0.316-0.010-0.659-0.029-1.030h0.692l0.037 0.563h0.022c0.092-0.175 0.228-0.319 0.408-0.434 0.213-0.134 0.452-0.202 0.714-0.202 0.33 0 0.605 0.108 0.824 0.326 0.272 0.267 0.408 0.664 0.408 1.193v2.156z"></path>
<path fill="#fff" style="fill: var(--color2, #fff)" d="M52.842 11.865h-0.786v-5.252h0.786v5.252z"></path>
<path fill="#fff" style="fill: var(--color2, #fff)" d="M57.476 10.035c0 0.554-0.155 1.007-0.466 1.363-0.326 0.366-0.759 0.548-1.297 0.548-0.521 0-0.934-0.175-1.242-0.526s-0.462-0.793-0.462-1.326c0-0.557 0.158-1.015 0.477-1.37s0.747-0.533 1.285-0.533c0.521 0 0.937 0.175 1.254 0.525 0.3 0.341 0.451 0.78 0.451 1.318zM56.659 10.061c0-0.332-0.071-0.617-0.211-0.855-0.164-0.287-0.4-0.431-0.705-0.431-0.317 0-0.557 0.144-0.722 0.431-0.141 0.238-0.211 0.527-0.211 0.869 0 0.332 0.071 0.617 0.211 0.855 0.17 0.287 0.408 0.431 0.714 0.431 0.3 0 0.536-0.146 0.705-0.438 0.146-0.242 0.219-0.529 0.219-0.861z"></path>
<path fill="#fff" style="fill: var(--color2, #fff)" d="M61.286 11.865h-0.707l-0.059-0.415h-0.022c-0.242 0.331-0.587 0.496-1.034 0.496-0.334 0-0.605-0.109-0.808-0.326-0.185-0.197-0.277-0.442-0.277-0.733 0-0.44 0.18-0.775 0.543-1.007s0.871-0.346 1.527-0.341v-0.067c0-0.474-0.245-0.711-0.735-0.711-0.349 0-0.657 0.089-0.923 0.267l-0.16-0.525c0.329-0.207 0.735-0.311 1.215-0.311 0.925 0 1.39 0.496 1.39 1.489v1.326c0 0.36 0.017 0.646 0.051 0.858zM60.469 10.628v-0.555c-0.868-0.015-1.302 0.227-1.302 0.726 0 0.188 0.050 0.328 0.151 0.422s0.231 0.141 0.385 0.141c0.173 0 0.334-0.056 0.481-0.166s0.239-0.253 0.273-0.426c0.008-0.039 0.013-0.086 0.013-0.14z"></path>
<path fill="#fff" style="fill: var(--color2, #fff)" d="M65.759 11.865h-0.699l-0.037-0.578h-0.022c-0.223 0.44-0.603 0.66-1.137 0.66-0.427 0-0.782-0.17-1.064-0.511s-0.422-0.783-0.422-1.326c0-0.583 0.152-1.055 0.459-1.415 0.297-0.336 0.66-0.504 1.093-0.504 0.475 0 0.808 0.163 0.997 0.489h0.015v-2.066h0.788v4.282c0 0.35 0.009 0.674 0.028 0.97zM64.943 10.347v-0.6c0-0.104-0.008-0.188-0.022-0.252-0.044-0.192-0.14-0.354-0.285-0.485-0.146-0.131-0.323-0.196-0.526-0.196-0.294 0-0.523 0.118-0.693 0.356-0.167 0.238-0.252 0.541-0.252 0.911 0 0.356 0.080 0.645 0.242 0.867 0.17 0.237 0.4 0.355 0.688 0.355 0.258 0 0.465-0.098 0.622-0.296 0.152-0.182 0.226-0.402 0.226-0.659z"></path>
<path fill="#fff" style="fill: var(--color2, #fff)" d="M72.491 10.035c0 0.554-0.156 1.007-0.466 1.363-0.326 0.366-0.757 0.548-1.297 0.548-0.519 0-0.933-0.175-1.242-0.526-0.308-0.35-0.462-0.793-0.462-1.326 0-0.557 0.158-1.015 0.477-1.37s0.747-0.533 1.287-0.533c0.519 0 0.937 0.175 1.253 0.525 0.3 0.341 0.451 0.78 0.451 1.318zM71.676 10.061c0-0.332-0.071-0.617-0.211-0.855-0.166-0.287-0.4-0.431-0.707-0.431-0.316 0-0.556 0.144-0.722 0.431-0.141 0.238-0.211 0.527-0.211 0.869 0 0.332 0.071 0.617 0.211 0.855 0.171 0.287 0.408 0.431 0.714 0.431 0.3 0 0.537-0.146 0.707-0.438 0.145-0.242 0.219-0.529 0.219-0.861z"></path>
<path fill="#fff" style="fill: var(--color2, #fff)" d="M76.724 11.865h-0.787v-2.062c0-0.635-0.237-0.953-0.714-0.953-0.234 0-0.422 0.087-0.568 0.262s-0.219 0.381-0.219 0.617v2.135h-0.788v-2.57c0-0.316-0.009-0.659-0.028-1.030h0.691l0.037 0.563h0.022c0.092-0.175 0.229-0.319 0.408-0.434 0.214-0.134 0.452-0.202 0.714-0.202 0.33 0 0.605 0.108 0.823 0.326 0.273 0.267 0.408 0.664 0.408 1.193v2.156z"></path>
<path fill="#fff" style="fill: var(--color2, #fff)" d="M82.021 8.865h-0.866v1.749c0 0.444 0.154 0.667 0.459 0.667 0.141 0 0.258-0.012 0.351-0.037l0.020 0.607c-0.155 0.060-0.36 0.089-0.611 0.089-0.311 0-0.553-0.096-0.728-0.289s-0.263-0.516-0.263-0.971v-1.815h-0.517v-0.599h0.517v-0.66l0.772-0.237v0.896h0.866v0.6h0.001z"></path>
<path fill="#fff" style="fill: var(--color2, #fff)" d="M86.188 11.865h-0.788v-2.047c0-0.645-0.238-0.968-0.713-0.968-0.365 0-0.614 0.187-0.75 0.561-0.024 0.079-0.037 0.175-0.037 0.288v2.165h-0.786v-5.251h0.786v2.17h0.015c0.248-0.395 0.603-0.592 1.064-0.592 0.326 0 0.596 0.108 0.81 0.326 0.267 0.271 0.4 0.674 0.4 1.207v2.14z"></path>
<path fill="#fff" style="fill: var(--color2, #fff)" d="M90.487 9.895c0 0.144-0.010 0.264-0.029 0.363h-2.36c0.010 0.356 0.123 0.627 0.341 0.815 0.2 0.168 0.458 0.252 0.773 0.252 0.349 0 0.667-0.057 0.955-0.17l0.123 0.556c-0.335 0.148-0.731 0.222-1.188 0.222-0.549 0-0.981-0.164-1.293-0.493-0.314-0.328-0.469-0.769-0.469-1.322 0-0.543 0.145-0.995 0.437-1.355 0.305-0.385 0.717-0.577 1.237-0.577 0.51 0 0.896 0.192 1.157 0.577 0.211 0.305 0.315 0.684 0.315 1.133zM89.736 9.688c0.006-0.238-0.046-0.442-0.152-0.615-0.137-0.222-0.345-0.334-0.627-0.334-0.257 0-0.466 0.108-0.626 0.326-0.13 0.173-0.208 0.38-0.233 0.622h1.639z"></path>
</symbol>
<symbol id="icon-googlePlay" viewBox="0 0 107 32">
<path fill="#000" style="fill: var(--color1, #000)" d="M0 4.267c0-2.356 1.888-4.267 4.216-4.267h98.234c2.329 0 4.216 1.91 4.216 4.267v23.467c0 2.356-1.887 4.267-4.216 4.267h-98.234c-2.328 0-4.216-1.91-4.216-4.267v-23.467z"></path>
<path fill="#fff" style="fill: var(--color2, #fff)" opacity="0.3" d="M0 27.733c0 2.356 1.888 4.267 4.216 4.267h98.234c2.329 0 4.216-1.91 4.216-4.267v-23.467c0-2.356-1.887-4.267-4.216-4.267h-98.234c-2.328 0-4.216 1.91-4.216 4.267v23.467zM0.632 27.733v-23.467c0-2.003 1.604-3.627 3.584-3.627h98.234c1.979 0 3.584 1.624 3.584 3.627v23.467c0 2.003-1.605 3.627-3.584 3.627h-98.234c-1.979 0-3.584-1.624-3.584-3.627z"></path>
<path fill="#ffd900" style="fill: var(--color3, #ffd900)" d="M22.491 19.431c2.526-1.416 4.44-2.496 4.605-2.579 0.528-0.287 1.073-1.046 0-1.635-0.346-0.185-2.212-1.231-4.605-2.579l-3.318 3.422 3.318 3.372z"></path>
<path fill="#f43249" style="fill: var(--color4, #f43249)" d="M19.173 16.059l-10.565 10.874c0.248 0.034 0.528-0.034 0.858-0.219 0.693-0.387 8.039-4.485 13.025-7.283l-3.318-3.372z"></path>
<path fill="#00ee76" style="fill: var(--color5, #00ee76)" d="M19.173 16.059l3.318-3.405c0 0-12.281-6.845-13.024-7.249-0.28-0.17-0.593-0.22-0.874-0.17l10.581 10.824z"></path>
<path fill="#00d3ff" style="fill: var(--color6, #00d3ff)" d="M19.173 16.059l-10.581-10.824c-0.43 0.101-0.792 0.489-0.792 1.281v19.136c0 0.725 0.281 1.248 0.809 1.298l10.565-10.891z"></path>
<path fill="#fff" style="fill: var(--color2, #fff)" d="M54.047 17.384c-1.898 0-3.467 1.5-3.467 3.557 0 2.040 1.552 3.557 3.467 3.557s3.466-1.5 3.466-3.557-1.552-3.557-3.466-3.557zM54.047 23.083c-1.040 0-1.948-0.894-1.948-2.157 0-1.281 0.908-2.158 1.948-2.158s1.947 0.876 1.947 2.158c0 1.264-0.908 2.157-1.947 2.157zM46.503 17.384c-1.915 0-3.467 1.5-3.467 3.557 0 2.040 1.552 3.557 3.467 3.557s3.467-1.5 3.467-3.557-1.552-3.557-3.467-3.557h0zM46.503 23.083c-1.040 0-1.947-0.894-1.947-2.157 0-1.281 0.908-2.158 1.947-2.158s1.948 0.876 1.948 2.158c0 1.264-0.892 2.157-1.948 2.157zM37.539 18.48v1.5h3.499c-0.099 0.843-0.379 1.467-0.792 1.888-0.512 0.522-1.304 1.096-2.707 1.096-2.163 0-3.83-1.787-3.83-3.995s1.667-4.029 3.83-4.029c1.172 0 2.014 0.472 2.641 1.079l1.039-1.063c-0.875-0.859-2.047-1.517-3.681-1.517-2.955 0-5.431 2.478-5.431 5.496s2.476 5.496 5.431 5.496c1.601 0 2.79-0.539 3.747-1.551 0.974-0.995 1.271-2.394 1.271-3.524 0-0.354-0.033-0.674-0.083-0.944l-4.935 0.068zM74.219 19.643c-0.281-0.792-1.172-2.259-2.955-2.259s-3.252 1.433-3.252 3.557c0 1.989 1.469 3.557 3.417 3.557 1.585 0 2.493-0.995 2.872-1.568l-1.172-0.809c-0.397 0.59-0.924 0.978-1.701 0.978s-1.32-0.354-1.668-1.079l4.606-1.972-0.148-0.404zM69.531 20.841c-0.033-1.366 1.040-2.074 1.799-2.074 0.611 0 1.106 0.303 1.287 0.759l-3.086 1.315zM65.783 24.263h1.519v-10.419h-1.519v10.419zM63.308 18.177h-0.049c-0.346-0.422-0.99-0.792-1.816-0.792-1.733 0-3.301 1.568-3.301 3.557s1.585 3.541 3.301 3.541c0.825 0 1.469-0.371 1.816-0.809h0.049v0.506c0 1.366-0.71 2.090-1.849 2.090-0.925 0-1.503-0.691-1.733-1.264l-1.32 0.573c0.379 0.944 1.387 2.107 3.054 2.107 1.783 0 3.285-1.079 3.285-3.692v-6.39h-1.436v0.574zM61.574 23.083c-1.040 0-1.915-0.894-1.915-2.141s0.875-2.158 1.915-2.158c1.024 0 1.849 0.911 1.849 2.158-0.001 1.23-0.826 2.141-1.849 2.141zM81.301 13.844h-3.631v10.419h1.518v-3.945h2.113c1.684 0 3.335-1.248 3.335-3.237s-1.651-3.237-3.335-3.237v0zM81.35 18.869h-2.146v-3.575h2.146c1.122 0 1.783 0.961 1.783 1.787-0.016 0.809-0.66 1.788-1.783 1.788zM90.694 17.368c-1.090 0-2.229 0.489-2.691 1.602l1.337 0.573c0.298-0.573 0.826-0.759 1.387-0.759 0.792 0 1.585 0.489 1.601 1.348v0.102c-0.281-0.169-0.858-0.405-1.585-0.405-1.452 0-2.922 0.826-2.922 2.344 0 1.399 1.189 2.293 2.509 2.293 1.024 0 1.585-0.472 1.931-1.028h0.050v0.809h1.468v-3.996c-0.016-1.837-1.353-2.883-3.086-2.883v0zM90.512 23.066c-0.495 0-1.189-0.253-1.189-0.876 0-0.809 0.858-1.113 1.601-1.113 0.661 0 0.974 0.152 1.387 0.354-0.116 0.961-0.925 1.635-1.8 1.635v0zM99.080 17.604l-1.733 4.501h-0.050l-1.799-4.501h-1.634l2.707 6.305-1.535 3.524h1.585l4.143-9.829-1.684 0zM85.477 24.263h1.519v-10.419h-1.519v10.419z"></path>
<path fill="#fff" style="fill: var(--color2, #fff)" d="M35.093 10.563c-0.459 0-0.881-0.112-1.268-0.335s-0.695-0.528-0.924-0.915c-0.225-0.391-0.337-0.826-0.337-1.304s0.112-0.91 0.337-1.297c0.229-0.391 0.537-0.699 0.924-0.922s0.81-0.335 1.268-0.335c0.364 0 0.704 0.066 1.019 0.198s0.578 0.316 0.789 0.553l-0.526 0.532c-0.157-0.178-0.346-0.314-0.567-0.41-0.216-0.096-0.456-0.143-0.722-0.143-0.31 0-0.6 0.075-0.87 0.225s-0.486 0.364-0.648 0.642-0.243 0.596-0.243 0.956c0 0.36 0.081 0.678 0.243 0.956s0.378 0.492 0.648 0.642c0.27 0.15 0.562 0.225 0.877 0.225 0.288 0 0.528-0.043 0.722-0.13s0.367-0.203 0.519-0.348c0.099-0.1 0.182-0.225 0.25-0.375 0.072-0.15 0.119-0.314 0.142-0.492h-1.639v-0.683h2.354c0.022 0.127 0.034 0.259 0.034 0.396 0 0.309-0.047 0.608-0.142 0.894-0.094 0.282-0.245 0.528-0.452 0.737-0.454 0.487-1.050 0.73-1.788 0.73z"></path>
<path fill="#fff" style="fill: var(--color2, #fff)" d="M38.178 5.565h2.934v0.73h-2.179v1.352h1.963v0.724h-1.963v1.352h2.179v0.73h-2.934v-4.888z"></path>
<path fill="#fff" style="fill: var(--color2, #fff)" d="M42.861 6.296h-1.349v-0.73h3.454v0.73h-1.349v4.157h-0.755v-4.157z"></path>
<path fill="#fff" style="fill: var(--color2, #fff)" d="M46.941 5.565h0.755v4.888h-0.755v-4.888z"></path>
<path fill="#fff" style="fill: var(--color2, #fff)" d="M49.608 6.296h-1.349v-0.73h3.454v0.73h-1.349v4.157h-0.755v-4.157z"></path>
<path fill="#fff" style="fill: var(--color2, #fff)" d="M55.816 10.563c-0.468 0-0.893-0.112-1.275-0.335-0.382-0.227-0.684-0.537-0.904-0.928-0.216-0.391-0.324-0.822-0.324-1.29s0.108-0.897 0.324-1.283c0.22-0.391 0.522-0.701 0.904-0.928s0.807-0.341 1.275-0.341c0.468 0 0.89 0.114 1.268 0.341 0.382 0.228 0.684 0.537 0.904 0.928 0.22 0.387 0.331 0.815 0.331 1.283s-0.11 0.899-0.331 1.29c-0.216 0.391-0.515 0.701-0.897 0.928-0.382 0.223-0.807 0.335-1.275 0.335zM55.816 9.832c0.319 0 0.612-0.077 0.877-0.232s0.474-0.369 0.627-0.642c0.153-0.278 0.229-0.594 0.229-0.949s-0.077-0.669-0.229-0.942c-0.153-0.278-0.362-0.494-0.627-0.649s-0.558-0.232-0.877-0.232-0.612 0.077-0.877 0.232c-0.265 0.155-0.477 0.371-0.634 0.649-0.153 0.273-0.229 0.587-0.229 0.942s0.076 0.671 0.229 0.949c0.157 0.273 0.369 0.487 0.634 0.642s0.558 0.232 0.877 0.232z"></path>
<path fill="#fff" style="fill: var(--color2, #fff)" d="M59.013 5.565h0.897l2.159 3.557h0.040l-0.040-0.942v-2.615h0.749v4.888h-0.789l-2.267-3.741h-0.040l0.040 0.942v2.799h-0.749v-4.888z"></path>
</symbol>
<symbol id="icon-arrowRight" viewBox="0 0 54 32">
<path d="M53.414 17.414c0.781-0.781 0.781-2.047 0-2.828l-12.728-12.728c-0.781-0.781-2.047-0.781-2.828 0s-0.781 2.047 0 2.828l11.314 11.314-11.314 11.314c-0.781 0.781-0.781 2.047 0 2.828s2.047 0.781 2.828 0l12.728-12.728zM0 18h52v-4h-52v4z"></path>
</symbol>
<symbol id="icon-inst" viewBox="0 0 32 32">
<path d="M16 2.884c4.272 0 4.779 0.016 6.467 0.093 1.557 0.072 2.405 0.331 2.971 0.552 0.693 0.256 1.325 0.664 1.84 1.195 0.533 0.517 0.941 1.147 1.2 1.843 0.219 0.565 0.48 1.413 0.549 2.971 0.077 1.688 0.093 2.195 0.093 6.467s-0.016 4.779-0.093 6.467c-0.072 1.56-0.331 2.405-0.552 2.971-0.267 0.689-0.674 1.315-1.197 1.838s-1.149 0.93-1.838 1.197c-0.565 0.219-1.413 0.48-2.971 0.552-1.688 0.077-2.195 0.093-6.467 0.093s-4.779-0.016-6.467-0.093c-1.56-0.072-2.405-0.331-2.971-0.552-0.695-0.257-1.324-0.666-1.84-1.197-0.533-0.515-0.941-1.147-1.2-1.84-0.219-0.565-0.48-1.413-0.549-2.971-0.077-1.688-0.093-2.195-0.093-6.467s0.016-4.779 0.093-6.467c0.072-1.56 0.331-2.405 0.552-2.971 0.256-0.693 0.667-1.325 1.197-1.84 0.515-0.533 1.147-0.941 1.84-1.2 0.565-0.219 1.413-0.48 2.971-0.549 1.688-0.077 2.195-0.093 6.467-0.093l-0.003 0.003zM16-0.001c-4.344 0-4.888 0.019-6.595 0.096-1.707 0.080-2.869 0.352-3.885 0.747-1.067 0.4-2.035 1.032-2.835 1.845-0.813 0.8-1.443 1.768-1.845 2.835-0.395 1.016-0.667 2.181-0.744 3.885-0.077 1.701-0.096 2.248-0.096 6.595s0.019 4.891 0.096 6.597c0.080 1.707 0.347 2.867 0.744 3.883 0.4 1.067 1.032 2.035 1.845 2.835 0.8 0.813 1.768 1.443 2.835 1.845 1.016 0.395 2.181 0.667 3.885 0.744 1.701 0.077 2.251 0.096 6.595 0.096 4.347 0 4.891-0.019 6.597-0.096 1.707-0.080 2.867-0.347 3.883-0.747 1.063-0.411 2.028-1.039 2.834-1.844s1.435-1.77 1.846-2.833c0.395-1.016 0.667-2.181 0.744-3.885 0.077-1.701 0.096-2.248 0.096-6.595s-0.019-4.888-0.096-6.595c-0.080-1.707-0.347-2.867-0.747-3.883-0.4-1.067-1.029-2.035-1.843-2.835-0.8-0.814-1.767-1.443-2.835-1.845-1.016-0.395-2.181-0.667-3.885-0.744-1.701-0.080-2.248-0.099-6.595-0.099v-0.003zM16 7.785c-1.079 0-2.147 0.213-3.144 0.625s-1.903 1.018-2.665 1.781c-0.763 0.763-1.368 1.669-1.781 2.665s-0.625 2.065-0.625 3.144 0.213 2.147 0.625 3.144c0.413 0.997 1.018 1.903 1.781 2.665s1.669 1.368 2.665 1.781c0.997 0.413 2.065 0.625 3.144 0.625 2.153-0.039 4.205-0.921 5.714-2.458s2.354-3.604 2.354-5.757c0-2.153-0.845-4.221-2.354-5.757s-3.561-2.419-5.714-2.458v-0.003zM16 21.337c-1.415 0-2.772-0.562-3.772-1.562s-1.563-2.357-1.563-3.772c0-1.415 0.562-2.772 1.563-3.772s2.357-1.563 3.772-1.563c1.415 0 2.771 0.562 3.771 1.562s1.562 2.357 1.562 3.771c0 1.415-0.562 2.771-1.562 3.771s-2.357 1.562-3.771 1.562v0.003zM26.461 7.46c0 0.252-0.050 0.502-0.146 0.735s-0.238 0.445-0.416 0.623c-0.178 0.178-0.39 0.32-0.623 0.416s-0.483 0.146-0.735 0.146c-0.252 0-0.502-0.050-0.735-0.146s-0.445-0.238-0.623-0.416c-0.178-0.178-0.32-0.39-0.416-0.623s-0.146-0.483-0.146-0.735c0-0.509 0.202-0.998 0.562-1.358s0.848-0.562 1.358-0.562 0.998 0.202 1.358 0.562c0.36 0.36 0.562 0.848 0.562 1.358z"></path>
</symbol>
<symbol id="icon-twit" viewBox="0 0 35 32">
<path d="M10.979 31.694c13.172 0 20.378-12.079 20.378-22.551 0-0.343 0-0.684-0.020-1.024 1.423-1.146 2.632-2.535 3.572-4.102-1.294 0.636-2.684 1.057-4.113 1.245 1.495-0.989 2.615-2.548 3.148-4.384-1.385 0.915-2.926 1.568-4.547 1.926-1.036-1.245-2.473-2.091-4.064-2.394-1.565-0.28-3.178 0.017-4.541 0.835-1.425 0.863-2.53 2.168-3.148 3.715-0.652 1.606-0.81 3.371-0.454 5.068-2.873-0.166-5.669-0.988-8.175-2.403-2.589-1.467-4.835-3.47-6.586-5.876-0.92 1.777-1.198 3.817-0.785 5.775 0.413 1.967 1.487 3.683 3.002 4.806-1.151-0.041-2.272-0.383-3.249-0.992v0.099c0 1.833 0.573 3.604 1.62 5.018 1.047 1.417 2.505 2.388 4.125 2.752-1.053 0.317-2.161 0.364-3.232 0.134 0.457 1.577 1.347 2.953 2.548 3.939 1.199 0.989 2.647 1.536 4.143 1.565-2.537 2.205-5.673 3.404-8.896 3.401-0.57 0-1.137-0.041-1.705-0.116 3.199 2.302 7.038 3.545 10.979 3.555z"></path>
</symbol>
<symbol id="icon-fb" viewBox="0 0 32 32">
<path d="M15.967 0.077c4.034-0.003 7.92 1.515 10.883 4.252s4.785 6.491 5.101 10.512c0.316 4.021-0.896 8.014-3.395 11.18s-6.1 5.274-10.085 5.901v-11.195h3.73l0.713-4.63h-4.446v-3.004c0-1.266 0.622-2.505 2.611-2.505h2.021v-3.938c0 0-0.214-0.037-0.561-0.085-0.786-0.108-1.576-0.179-2.368-0.214-0.219-0.009-0.438-0.013-0.657-0.013-3.658 0-6.053 2.216-6.053 6.232v3.527h-4.064v4.63h4.069v11.195c-3.971-0.642-7.556-2.755-10.042-5.918s-3.691-7.145-3.376-11.156c0.315-4.011 2.126-7.756 5.075-10.493s6.819-4.264 10.842-4.279z"></path>
</symbol>
<symbol id="icon-pinterest" viewBox="0 0 30 32">
<path d="M25.17 26.515c-2.764 2.738-6.498 4.272-10.389 4.267-1.527 0-3.001-0.232-4.385-0.663 0.606-0.985 1.493-2.575 1.818-3.851l0.924-3.516c0.475 0.924 1.887 1.702 3.382 1.702 4.454 0 7.664-4.099 7.664-9.197 0-4.89-3.991-8.541-9.11-8.541-6.388 0-9.771 4.282-9.771 8.943 0 2.178 1.158 4.866 3.006 5.73 0.278 0.133 0.439 0.074 0.498-0.197l0.143-0.574 0.271-1.104c0.022-0.073 0.025-0.151 0.007-0.226s-0.054-0.144-0.106-0.2c-0.606-0.739-1.094-2.104-1.094-3.37 0-3.259 2.471-6.41 6.679-6.41 3.639 0 6.181 2.469 6.181 6.011 0 3.991-2.020 6.763-4.646 6.763-1.449 0-2.545-1.205-2.193-2.676 0.153-0.628 0.352-1.274 0.547-1.902 0.35-1.133 0.682-2.212 0.682-3.025 0-1.133-0.606-2.082-1.872-2.082-1.483 0-2.675 1.532-2.675 3.589 0 1.301 0.436 2.19 0.436 2.19s-1.458 6.193-1.724 7.349c-0.296 1.276-0.185 3.072-0.049 4.242-2.768-1.085-5.146-2.979-6.821-5.435s-2.572-5.361-2.572-8.334c-0-2.077 0.437-4.131 1.284-6.027s2.084-3.593 3.63-4.98c1.546-1.387 3.368-2.432 5.345-3.067s4.066-0.847 6.131-0.621c3.623 0.396 6.971 2.119 9.398 4.837s3.763 6.238 3.75 9.883c0.003 1.951-0.382 3.882-1.132 5.683s-1.85 3.435-3.236 4.807z"></path>
</symbol>
</defs>
</svg>
