<svg aria-hidden="true" style="position: absolute; width: 0; height: 0; overflow: hidden;" version="1.1" xmlns="http://www.w3.org/2000/svg" xmlns:xlink="http://www.w3.org/1999/xlink">
<defs>
<symbol id="icon-bi_book" viewBox="0 0 32 32">
<path  d="M2 5.656c1.77-0.74 4.308-1.538 6.776-1.786 2.66-0.268 4.916 0.126 6.224 1.504v19.492c-1.87-1.060-4.24-1.206-6.426-0.986-2.36 0.24-4.74 0.922-6.574 1.622v-19.846zM17 5.374c1.308-1.378 3.564-1.772 6.224-1.504 2.468 0.248 5.006 1.046 6.776 1.786v19.846c-1.836-0.7-4.214-1.384-6.574-1.62-2.188-0.222-4.556-0.078-6.426 0.984v-19.492zM16 3.566c-1.97-1.694-4.826-1.946-7.426-1.686-3.028 0.306-6.084 1.344-7.988 2.21-0.175 0.079-0.323 0.207-0.427 0.369s-0.159 0.349-0.159 0.541v22c0 0.167 0.042 0.332 0.122 0.479s0.196 0.271 0.337 0.362c0.141 0.091 0.302 0.144 0.469 0.157s0.334-0.018 0.486-0.087c1.764-0.8 4.606-1.762 7.36-2.040 2.818-0.284 5.18 0.174 6.446 1.754 0.094 0.117 0.212 0.211 0.347 0.276s0.283 0.098 0.433 0.098c0.15 0 0.298-0.034 0.433-0.098s0.254-0.159 0.347-0.276c1.266-1.58 3.628-2.038 6.444-1.754 2.756 0.278 5.6 1.24 7.362 2.040 0.152 0.069 0.32 0.099 0.486 0.087s0.328-0.066 0.469-0.157c0.141-0.090 0.256-0.215 0.337-0.362s0.122-0.311 0.122-0.479v-22c-0-0.192-0.055-0.38-0.159-0.541s-0.252-0.289-0.427-0.369c-1.904-0.866-4.96-1.904-7.988-2.21-2.6-0.262-5.456-0.008-7.426 1.686z"></path>
</symbol>
<symbol id="icon-cil_microphone" viewBox="0 0 32 32">
<path  d="M16 20.5c1.591-0.002 3.116-0.634 4.241-1.759s1.758-2.65 1.759-4.241v-7.5c0-1.591-0.632-3.117-1.757-4.243s-2.651-1.757-4.243-1.757-3.117 0.632-4.243 1.757c-1.125 1.125-1.757 2.651-1.757 4.243v7.5c0.002 1.591 0.634 3.116 1.759 4.241s2.65 1.758 4.241 1.759zM12 7c0-1.061 0.421-2.078 1.172-2.828s1.768-1.172 2.828-1.172 2.078 0.421 2.828 1.172c0.75 0.75 1.172 1.768 1.172 2.828v7.5c0 1.061-0.421 2.078-1.172 2.828s-1.767 1.172-2.828 1.172-2.078-0.421-2.828-1.172c-0.75-0.75-1.172-1.768-1.172-2.828v-7.5z"></path>
<path  d="M25 11v3.5c0 4.962-4.038 9-9 9s-9-4.038-9-9v-3.5h-2v3.5c0 5.728 4.402 10.447 10 10.954v5.546h2v-5.546c5.599-0.507 10-5.226 10-10.954v-3.5h-2z"></path>
</symbol>
<symbol id="icon-bi_journals" viewBox="0 0 32 32">
<path  d="M10 0h16c1.061 0 2.078 0.421 2.828 1.172s1.172 1.768 1.172 2.828v20c0 1.061-0.421 2.078-1.172 2.828s-1.767 1.172-2.828 1.172c0 1.061-0.421 2.078-1.172 2.828s-1.767 1.172-2.828 1.172h-16c-1.061 0-2.078-0.421-2.828-1.172s-1.172-1.767-1.172-2.828h2c0 0.53 0.211 1.039 0.586 1.414s0.884 0.586 1.414 0.586h16c0.53 0 1.039-0.211 1.414-0.586s0.586-0.884 0.586-1.414v-20c0-0.53-0.211-1.039-0.586-1.414s-0.884-0.586-1.414-0.586h-16c-0.53 0-1.039 0.211-1.414 0.586s-0.586 0.884-0.586 1.414h-2c0-1.061 0.421-2.078 1.172-2.828s1.768-1.172 2.828-1.172h16c1.061 0 2.078 0.421 2.828 1.172s1.172 1.768 1.172 2.828v18c0.53 0 1.039-0.211 1.414-0.586s0.586-0.884 0.586-1.414v-20c0-0.53-0.211-1.039-0.586-1.414s-0.884-0.586-1.414-0.586h-16c-0.53 0-1.039 0.211-1.414 0.586s-0.586 0.884-0.586 1.414h-2c0-1.061 0.421-2.078 1.172-2.828s1.768-1.172 2.828-1.172v0z"></path>
<path  d="M2 12v-1c0-0.265 0.105-0.52 0.293-0.707s0.442-0.293 0.707-0.293c0.265 0 0.52 0.105 0.707 0.293s0.293 0.442 0.293 0.707v1h1c0.265 0 0.52 0.105 0.707 0.293s0.293 0.442 0.293 0.707c0 0.265-0.105 0.52-0.293 0.707s-0.442 0.293-0.707 0.293h-4c-0.265 0-0.52-0.105-0.707-0.293s-0.293-0.442-0.293-0.707c0-0.265 0.105-0.52 0.293-0.707s0.442-0.293 0.707-0.293h1zM2 18v-1c0-0.265 0.105-0.52 0.293-0.707s0.442-0.293 0.707-0.293c0.265 0 0.52 0.105 0.707 0.293s0.293 0.442 0.293 0.707v1h1c0.265 0 0.52 0.105 0.707 0.293s0.293 0.442 0.293 0.707c0 0.265-0.105 0.52-0.293 0.707s-0.442 0.293-0.707 0.293h-4c-0.265 0-0.52-0.105-0.707-0.293s-0.293-0.442-0.293-0.707c0-0.265 0.105-0.52 0.293-0.707s0.442-0.293 0.707-0.293h1zM2 23v1h-1c-0.265 0-0.52 0.105-0.707 0.293s-0.293 0.442-0.293 0.707c0 0.265 0.105 0.52 0.293 0.707s0.442 0.293 0.707 0.293h4c0.265 0 0.52-0.105 0.707-0.293s0.293-0.442 0.293-0.707c0-0.265-0.105-0.52-0.293-0.707s-0.442-0.293-0.707-0.293h-1v-1c0-0.265-0.105-0.52-0.293-0.707s-0.442-0.293-0.707-0.293c-0.265 0-0.52 0.105-0.707 0.293s-0.293 0.442-0.293 0.707z"></path>
</symbol>
<symbol id="icon-Vector" viewBox="0 0 32 32">
<path  d="M16 0.82c-4.133 0.078-8.066 1.791-10.938 4.765s-4.446 6.965-4.379 11.098v14.769h5.689c0.793 0.018 1.561-0.28 2.135-0.827s0.908-1.3 0.928-2.094v-7.286c-0.020-0.793-0.354-1.546-0.928-2.094s-1.342-0.845-2.135-0.828h-3.501v-1.641c-0.067-3.553 1.277-6.988 3.738-9.551s5.838-4.047 9.391-4.124c3.553 0.078 6.93 1.561 9.391 4.124s3.805 5.998 3.738 9.551v1.641h-3.501c-0.793-0.018-1.561 0.28-2.135 0.828s-0.908 1.3-0.928 2.094v7.297c0.023 0.791 0.358 1.541 0.932 2.086s1.34 0.841 2.131 0.824h5.689v-14.769c0.067-4.133-1.507-8.124-4.379-11.098s-6.805-4.687-10.938-4.765zM6.373 20.513c0.213-0.015 0.423 0.053 0.586 0.189s0.267 0.332 0.289 0.544v7.297c-0.022 0.212-0.126 0.407-0.289 0.544s-0.373 0.205-0.586 0.189h-3.501v-8.763h3.501zM24.752 28.532v-7.286c0.022-0.212 0.126-0.407 0.289-0.544s0.374-0.205 0.586-0.189h3.501v8.752h-3.501c-0.212 0.015-0.423-0.052-0.586-0.189s-0.267-0.332-0.289-0.544z"></path>
</symbol>
<symbol id="icon-iconoir_music-1" viewBox="0 0 32 32">
<path fill="none"  stroke-linejoin="round" stroke-linecap="round" stroke-miterlimit="4" stroke-width="1.5" d="M26.667 18.667v-14.667l-14.667 2.667v14.667"></path>
<path fill="none"  stroke-linejoin="round" stroke-linecap="round" stroke-miterlimit="4" stroke-width="1.5" d="M22.667 25.333h1.333c0.707 0 1.386-0.281 1.886-0.781s0.781-1.178 0.781-1.886v-4h-4c-0.707 0-1.386 0.281-1.886 0.781s-0.781 1.178-0.781 1.886v1.333c0 0.707 0.281 1.386 0.781 1.886s1.178 0.781 1.886 0.781z"></path>
<path fill="none"  stroke-linejoin="round" stroke-linecap="round" stroke-miterlimit="4" stroke-width="1.5" d="M8 28h1.333c0.707 0 1.385-0.281 1.886-0.781s0.781-1.178 0.781-1.886v-4h-4c-0.707 0-1.386 0.281-1.886 0.781s-0.781 1.178-0.781 1.886v1.333c0 0.707 0.281 1.386 0.781 1.886s1.178 0.781 1.886 0.781z"></path>
</symbol>
<symbol id="icon-et_documents" viewBox="0 0 32 32">
<path d="M1.423 26.853h16.93c0.778 0 1.412-0.633 1.412-1.412v-17.882c0-0.022-0.009-0.040-0.012-0.061s-0.007-0.039-0.012-0.058c-0.018-0.080-0.058-0.154-0.115-0.214l-6.587-6.587c-0.075-0.071-0.17-0.115-0.272-0.127-0.020-0.002-0.039-0.011-0.060-0.011h-11.289c-0.781 0-1.417 0.633-1.417 1.412v23.529c0 0.778 0.638 1.412 1.423 1.412zM13.177 2.107l4.982 4.982h-4.511c-0.125 0-0.245-0.050-0.333-0.138s-0.138-0.208-0.138-0.333v-4.511zM0.941 1.912c0-0.26 0.214-0.471 0.476-0.471h10.818v5.176c0 0.778 0.633 1.412 1.412 1.412h5.176v17.412c0 0.125-0.049 0.244-0.138 0.333s-0.208 0.138-0.333 0.138h-16.93c-0.063 0.001-0.125-0.011-0.183-0.034s-0.111-0.058-0.156-0.101-0.080-0.096-0.105-0.153c-0.025-0.058-0.038-0.119-0.038-0.182v-23.529z"></path>
<path d="M4.235 11.794h11.294c0.125 0 0.245-0.050 0.333-0.138s0.138-0.208 0.138-0.333-0.050-0.245-0.138-0.333c-0.088-0.088-0.208-0.138-0.333-0.138h-11.294c-0.125 0-0.244 0.050-0.333 0.138s-0.138 0.208-0.138 0.333 0.050 0.245 0.138 0.333c0.088 0.088 0.208 0.138 0.333 0.138z"></path>
<path d="M4.235 15.559h11.294c0.125 0 0.245-0.050 0.333-0.138s0.138-0.208 0.138-0.333-0.050-0.245-0.138-0.333c-0.088-0.088-0.208-0.138-0.333-0.138h-11.294c-0.125 0-0.244 0.050-0.333 0.138s-0.138 0.208-0.138 0.333 0.050 0.245 0.138 0.333c0.088 0.088 0.208 0.138 0.333 0.138z"></path>
<path d="M4.235 8.029h4.706c0.125 0 0.245-0.050 0.333-0.138s0.138-0.208 0.138-0.333c0-0.125-0.050-0.245-0.138-0.333s-0.208-0.138-0.333-0.138h-4.706c-0.125 0-0.244 0.050-0.333 0.138s-0.138 0.208-0.138 0.333c0 0.125 0.050 0.245 0.138 0.333s0.208 0.138 0.333 0.138z"></path>
<path d="M4.235 19.323h11.294c0.125 0 0.245-0.050 0.333-0.138s0.138-0.208 0.138-0.333-0.050-0.244-0.138-0.333c-0.088-0.088-0.208-0.138-0.333-0.138h-11.294c-0.125 0-0.244 0.050-0.333 0.138s-0.138 0.208-0.138 0.333 0.050 0.244 0.138 0.333c0.088 0.088 0.208 0.138 0.333 0.138z"></path>
<path d="M4.235 23.088h11.294c0.125 0 0.245-0.050 0.333-0.138s0.138-0.208 0.138-0.333-0.050-0.244-0.138-0.333c-0.088-0.088-0.208-0.138-0.333-0.138h-11.294c-0.125 0-0.244 0.050-0.333 0.138s-0.138 0.208-0.138 0.333 0.050 0.244 0.138 0.333c0.088 0.088 0.208 0.138 0.333 0.138z"></path>
<path d="M20.235 5.206h4.235v5.176c0 0.778 0.633 1.412 1.412 1.412h5.177v17.412c0 0.125-0.050 0.244-0.138 0.333s-0.208 0.138-0.333 0.138h-16.93c-0.063 0.001-0.125-0.011-0.183-0.034s-0.111-0.058-0.156-0.101c-0.045-0.044-0.080-0.096-0.105-0.153s-0.038-0.119-0.038-0.182v-0.941c0-0.125-0.050-0.244-0.138-0.333s-0.208-0.138-0.333-0.138-0.245 0.049-0.333 0.138c-0.088 0.088-0.138 0.208-0.138 0.333v0.941c0 0.778 0.638 1.412 1.423 1.412h16.93c0.778 0 1.412-0.633 1.412-1.412v-17.882c0-0.022-0.009-0.040-0.012-0.061-0.003-0.020-0.007-0.039-0.012-0.058-0.018-0.080-0.058-0.154-0.115-0.214l-6.587-6.587c-0.074-0.071-0.17-0.115-0.272-0.126-0.020-0.003-0.039-0.012-0.060-0.012h-4.706c-0.125 0-0.244 0.050-0.333 0.138s-0.138 0.208-0.138 0.333 0.050 0.245 0.138 0.333c0.088 0.088 0.208 0.138 0.333 0.138zM25.882 10.853c-0.125 0-0.244-0.050-0.333-0.138s-0.138-0.208-0.138-0.333v-4.511l4.982 4.982h-4.511z"></path>
<path d="M22.118 15.559h5.647c0.125 0 0.244-0.050 0.333-0.138s0.138-0.208 0.138-0.333-0.050-0.245-0.138-0.333c-0.088-0.088-0.208-0.138-0.333-0.138h-5.647c-0.125 0-0.245 0.050-0.333 0.138s-0.138 0.208-0.138 0.333 0.049 0.245 0.138 0.333c0.088 0.088 0.208 0.138 0.333 0.138z"></path>
<path d="M22.118 19.323h5.647c0.125 0 0.244-0.050 0.333-0.138s0.138-0.208 0.138-0.333-0.050-0.244-0.138-0.333c-0.088-0.088-0.208-0.138-0.333-0.138h-5.647c-0.125 0-0.245 0.050-0.333 0.138s-0.138 0.208-0.138 0.333 0.049 0.244 0.138 0.333c0.088 0.088 0.208 0.138 0.333 0.138z"></path>
<path d="M22.118 23.088h5.647c0.125 0 0.244-0.050 0.333-0.138s0.138-0.208 0.138-0.333-0.050-0.244-0.138-0.333c-0.088-0.088-0.208-0.138-0.333-0.138h-5.647c-0.125 0-0.245 0.050-0.333 0.138s-0.138 0.208-0.138 0.333 0.049 0.244 0.138 0.333c0.088 0.088 0.208 0.138 0.333 0.138z"></path>
<path d="M22.118 26.853h5.647c0.125 0 0.244-0.050 0.333-0.138s0.138-0.208 0.138-0.333-0.050-0.244-0.138-0.333c-0.088-0.088-0.208-0.138-0.333-0.138h-5.647c-0.125 0-0.245 0.050-0.333 0.138s-0.138 0.208-0.138 0.333 0.049 0.244 0.138 0.333c0.088 0.088 0.208 0.138 0.333 0.138z"></path>
</symbol>
</defs>
</svg>
